<svg width="50" height="49" viewBox="0 0 50 49" fill="none" xmlns="http://www.w3.org/2000/svg">
<g clip-path="url(#clip0_6_314)">
<path d="M39.0007 24.4934C39.0051 32.2167 32.702 38.5128 24.9788 38.5012C17.279 38.4895 11.0022 32.2051 10.9993 24.5051C10.9963 16.7804 17.2965 10.4886 25.0212 10.5003C32.724 10.5105 38.9963 16.7891 39.0007 24.4934Z" fill="#19291D"/>
<path d="M26.7497 3.47818C26.7497 4.06104 26.7599 4.64391 26.7468 5.22677C26.7234 6.2435 25.9534 7.0075 24.9789 6.99728C24.0292 6.98705 23.2679 6.22743 23.2548 5.23992C23.2387 4.07419 23.2373 2.907 23.2548 1.74128C23.2709 0.752307 24.0365 0.00437097 24.992 -1.1469e-05C25.9432 -0.0043939 26.7161 0.747924 26.7453 1.72813C26.7628 2.31099 26.7482 2.89386 26.7497 3.47672V3.47818Z" fill="#19291D"/>
<path d="M3.99344 26.2493C3.41048 26.2493 2.82751 26.2625 2.24454 26.2464C1.25978 26.2201 0.504402 25.459 0.500019 24.5095C0.495636 23.5527 1.24078 22.774 2.22409 22.7565C3.40755 22.7361 4.59248 22.7361 5.77741 22.7565C6.75341 22.774 7.50586 23.5673 7.49564 24.5168C7.48687 25.4473 6.75049 26.2099 5.79641 26.2435C5.19591 26.2654 4.59395 26.2479 3.99344 26.2493Z" fill="#19291D"/>
<path d="M45.9891 22.7507C46.572 22.7507 47.155 22.7404 47.738 22.7536C48.7271 22.7755 49.4869 23.5249 49.5 24.4744C49.5146 25.4488 48.7505 26.2318 47.7365 26.2464C46.5706 26.2625 45.4046 26.2654 44.2387 26.2464C43.2568 26.2289 42.5029 25.4503 42.5044 24.4993C42.5044 23.5424 43.2525 22.7828 44.2402 22.7551C44.8231 22.739 45.4061 22.7521 45.9891 22.7521V22.7507Z" fill="#19291D"/>
<path d="M26.7483 45.5276C26.7483 46.1105 26.7629 46.6948 26.7454 47.2762C26.7147 48.2579 25.9403 49.0073 24.9877 49C24.038 48.9941 23.2695 48.236 23.2548 47.2514C23.2373 46.0857 23.2373 44.9185 23.2548 43.7528C23.2695 42.7609 24.0278 42.0115 24.9833 42.0027C25.9564 41.9939 26.7249 42.7609 26.7468 43.7776C26.76 44.3604 26.7497 44.9433 26.7483 45.5262V45.5276Z" fill="#19291D"/>
<path d="M7.1582 8.63631C7.1845 7.70285 7.50886 7.16089 8.15319 6.84682C8.79899 6.53128 9.46524 6.57657 9.99415 7.05863C10.8153 7.80511 11.6042 8.59249 12.3509 9.41346C12.9572 10.0796 12.8637 11.1124 12.2252 11.742C11.5853 12.3731 10.561 12.4505 9.89479 11.8399C9.08974 11.1022 8.31683 10.325 7.58338 9.51718C7.33353 9.24109 7.24295 8.82037 7.1582 8.63631Z" fill="#19291D"/>
<path d="M40.8797 6.65546C41.8192 6.69344 42.3569 7.02504 42.6652 7.67218C42.9749 8.32224 42.9136 8.98253 42.4314 9.50988C41.6936 10.3148 40.9207 11.0905 40.1156 11.8282C39.4304 12.4578 38.3842 12.3716 37.7457 11.7099C37.1204 11.0627 37.059 10.046 37.6756 9.37841C38.4032 8.58957 39.163 7.82411 39.9593 7.10539C40.2486 6.8439 40.684 6.74603 40.8797 6.65546Z" fill="#19291D"/>
<path d="M9.12916 42.346C8.20284 42.3109 7.65932 41.991 7.34519 41.3453C7.03106 40.6982 7.0749 40.0335 7.55705 39.5047C8.30512 38.6852 9.09118 37.8949 9.91084 37.1484C10.5771 36.5422 11.6071 36.6357 12.2398 37.2755C12.871 37.9139 12.9484 38.9379 12.3362 39.6055C11.5984 40.4104 10.8225 41.1832 10.0146 41.9165C9.73843 42.1678 9.31764 42.2584 9.1277 42.346H9.12916Z" fill="#19291D"/>
<path d="M42.8493 40.3885C42.8055 41.3118 42.4797 41.8537 41.8324 42.1619C41.1822 42.4731 40.5218 42.4161 39.9944 41.9341C39.1893 41.1978 38.4135 40.4221 37.6742 39.6187C37.0445 38.9336 37.1263 37.892 37.7867 37.2492C38.4296 36.624 39.4494 36.5568 40.1186 37.1733C40.9207 37.9139 41.6965 38.6881 42.4285 39.4974C42.6784 39.7735 42.7631 40.1972 42.8493 40.3885Z" fill="#19291D"/>
</g>
<defs>
<clipPath id="clip0_6_314">
<rect width="49" height="49" fill="white" transform="translate(0.5)"/>
</clipPath>
</defs>
</svg>
