<?xml version="1.0" encoding="UTF-8"?>
<svg id="Capa_2" data-name="Capa 2" xmlns="http://www.w3.org/2000/svg" xmlns:xlink="http://www.w3.org/1999/xlink" viewBox="0 0 500 500">
  <defs>
    <style>
      .cls-1 {
        fill: #f18f8e;
      }

      .cls-2 {
        opacity: .5;
      }

      .cls-3 {
        fill: #19291d;
      }

      .cls-4 {
        fill: #e7e6e5;
      }

      .cls-5 {
        fill: #263e2c;
      }

      .cls-6 {
        fill: #f0f6ea;
      }

      .cls-7 {
        fill: #f3a5a8;
      }

      .cls-8 {
        clip-path: url(#clippath);
      }

      .cls-9 {
        fill: #32523a;
      }

      .cls-10 {
        fill: none;
      }

      .cls-11 {
        fill: #010101;
        isolation: isolate;
        opacity: .35;
      }

      .cls-12 {
        fill: #263339;
      }

      .cls-13 {
        fill: #60beb9;
      }

      .cls-14 {
        fill: #dfdfdf;
      }
    </style>
    <clipPath id="clippath">
      <circle class="cls-10" cx="250" cy="250" r="250"/>
    </clipPath>
  </defs>
  <g id="Capa_1-2" data-name="Capa 1">
    <g>
      <circle class="cls-6" cx="250" cy="250" r="250"/>
      <g class="cls-8">
        <g id="freepik--Character--inject-1--inject-3">
          <g id="freepik--character--inject-1--inject-3">
            <path class="cls-1" d="m298.06,344.14c16.55,3.92,32.67,12.48,44.25,47.19,11.58,34.71,33.81,160.9,33.81,160.9l98.76,179.1-40.86,23.24-101.31-137.38c-12.37-16.71-20.82-35.97-24.77-56.39l-21.33-110.12,11.43-106.55"/>
            <path class="cls-14" d="m296.15,342.96c12.61,1.9,24.12,8.21,32.52,17.8,13.11,15.65,17.56,37.6,23.01,59.01,5.43,21.4,12.29,55.25,12.29,55.25,0,0-23.48,27.08-82.64,18.59-1.38-1.99-9.46-128.07-9.46-128.07l24.3-22.58h-.01Z"/>
            <g id="freepik--character--inject-1--inject-3-2">
              <ellipse class="cls-5" cx="222.97" cy="139.77" rx="96.15" ry="79" transform="translate(-35.54 90.54) rotate(-21.3)"/>
              <ellipse class="cls-9" cx="243.53" cy="187.25" rx="170.38" ry="104.95" transform="translate(-54.99 114.77) rotate(-23.91)"/>
              <path class="cls-4" d="m313.6,504.25c0,8.96-7.05,45.9-7.16,59.91-29.15,19.09-147.44,10.56-178.79-22.69l-9.59-71.8s51.37-57.76,18.43-142.47l52.75,1.84,77.01,6.77c9.28,1.36,18.36,3.75,27.11,7.12,17.89,20.99,32.18,44.79,42.3,70.44,7.9,19.75,17.65,48.72-22.07,90.9h0Z"/>
              <path class="cls-7" d="m139.08,329.62c-20.39-1.38-43.05,6.37-57.09,34.05-19.92,39.33-52.2,214.83-44.41,231.91l75.99-36.74,19.95-103.15c23.71-33.53,26.41-111.04,5.56-126.08h0Z"/>
              <path class="cls-14" d="m143.86,327.04s-30.17-2.89-44.49,9.7c-18.5,16.2-22.03,24.46-31.62,61.47-8.92,34.55-13.18,55.68-13.18,55.68,0,0,7.82,11.74,34.82,20.27,27,8.54,44.21,3.92,44.21,3.92l6.3-24.15s16.36-43.05,17.34-80.34c.98-37.29-13.38-46.57-13.38-46.57h0Z"/>
              <path class="cls-13" d="m220.67,434.4s-4.27-73.44-42.72-105.65c-9.15-2.91-18.9-3.41-28.29-1.45,31.86,27.15,40.93,67.66,45.63,109.25l25.4-2.15h-.01Z"/>
              <path class="cls-11" d="m220.67,434.4s-4.27-73.44-42.72-105.65c-9.15-2.91-18.9-3.41-28.29-1.45,31.86,27.15,40.93,67.66,45.63,109.25l25.4-2.15h-.01Z"/>
              <path class="cls-13" d="m341.78,439.26s-1.99-58.69-43.71-95.12c0,0-17.3-11.74-33.35-8.56,25.12,13.86,50.47,58.69,53.21,103.46l23.83.24h.01Z"/>
              <path class="cls-3" d="m341.78,439.26s-1.99-58.69-43.71-95.12c0,0-17.3-11.74-33.35-8.56,25.12,13.86,50.47,58.69,53.21,103.46l23.83.24h.01Z"/>
              <path class="cls-12" d="m256.47,292.42l-39.96-4.69c-52.12-6.11-87.46-57.72-74.97-106.51l2.3-12.79c28.18-42.53,91.4-75.91,117.08-87.02h0c63.01,7.47,108.09,64.53,100.79,127.57h0c-6.02,52.1-53.14,89.48-105.26,83.47v-.03Z"/>
              <path class="cls-7" d="m328.43,139.8c11.27,8.54,22.62,40.66,13.69,104.16-7.6,53.84-26.65,65.12-35.89,67.93-9.24,2.82-25.86-1.53-42.02-6.18l-3.83,32.36s19.56,29.12,16.47,43.79c-3.09,14.67-35.02,14.52-54.59-2.47-19.57-16.99-34.24-47.39-34.24-47.39l9.08-74.34s-10.75,8.26-25.51-8.02c-12.21-13.46-14.41-34.01-2.58-43.47,10.54-7.79,25.43-5.57,33.22,4.98,1.52,2.05,2.7,4.34,3.48,6.77,0,0,26.17,3.92,63.39-11.08,29.32-11.61,51.36-36.52,59.32-67.03v-.03Z"/>
              <path class="cls-12" d="m283.47,223.34c-.39,3.76-3.76,6.49-7.53,6.09s-6.49-3.76-6.09-7.53c.39-3.66,3.61-6.36,7.29-6.11,3.83.34,6.67,3.71,6.35,7.54h-.01Z"/>
              <g class="cls-2">
                <path class="cls-1" d="m279.95,269.32l15.18,6.85c-1.64,4.18-6.36,6.25-10.54,4.62-.13-.06-.25-.1-.38-.15-4.24-1.99-6.14-7.01-4.27-11.3h.01Z"/>
              </g>
              <path class="cls-12" d="m341.54,208.95l-12.59-11.12c2.75-3.51,7.81-4.11,11.32-1.38.14.11.28.24.42.35,3.47,3.17,3.85,8.49.86,12.13h0Z"/>
              <path class="cls-12" d="m336.49,224.6c-.39,3.76-3.76,6.49-7.53,6.09-3.76-.39-6.49-3.76-6.09-7.53.39-3.66,3.61-6.36,7.29-6.11,3.82.31,6.66,3.65,6.35,7.46v.1h-.01Z"/>
              <g class="cls-2">
                <polygon class="cls-1" points="304.95 216.96 301.23 257.93 323.5 253.79 304.95 216.96"/>
              </g>
              <g class="cls-2">
                <path class="cls-1" d="m264.29,305.71c-17.1-4.31-51.61-18.74-55.49-33.53,1.36,7.44,4.97,14.26,10.38,19.56,9.63,10.4,43.86,24.85,43.86,24.85l1.25-10.88Z"/>
              </g>
              <path class="cls-9" d="m328.93,114.49c-85.42-28.68-192.6,67.27-189.19,115.51-19.01-21.05-4.58-87.57-4.58-87.57,20.67-23.12,94.53-68.21,147.83-68.28,23.4,8.89,38.89,22.23,45.94,40.34Z"/>
            </g>
            <path class="cls-13" d="m157.24,559.12s17.34-46.02,21.09-85.53c3.76-39.52,4.82-44.76,56.12-45.5,51.3-.74,93.21-5.78,105.46-2.89,12.24,2.89,6.15,49.03-10.56,86.08-9.14,19.53-16.76,39.72-22.82,60.41,0,0-78.57,23.71-149.27-12.57h-.01Z"/>
            <path class="cls-5" d="m157.24,559.12s17.34-46.02,21.09-85.53c3.76-39.52,4.82-44.76,56.12-45.5,51.3-.74,93.21-5.78,105.46-2.89,12.24,2.89,6.15,49.03-10.56,86.08-9.14,19.53-16.76,39.72-22.82,60.41,0,0-78.57,23.71-149.27-12.57h-.01Z"/>
            <path class="cls-9" d="m220.67,457.37l105.34-3.48s-3.92,49.93-15.15,58.18c-11.23,8.26-80.6,9.04-93.09,3.57-14.78-6.5,2.89-58.27,2.89-58.27Z"/>
            <path class="cls-12" d="m198.32,446.23c14.52-4.86,29.43-16.08,34.82-30.72,1.45-3.73,2.61-7.55,3.48-11.47,2.08-12.27.97-24.88-3.24-36.59-2.93-10.45-7.6-20.32-13.77-29.23-5.63-7.62-12.02-14.71-17.34-22.53-2.39-3.48-4.46-7.16-6.22-10.99-3.48-7.4-1.29-27.59-1.29-27.59.01-2.29-.58-4.55-1.73-6.53-4.35-5-10.25-8.42-16.75-9.74-5.35-1.01-10.82,1.04-14.21,5.32-10.36,9.66-18.5,21.44-23.87,34.55-4.51,11.11-5.31,23.38-2.27,34.99,1.94,6.78,4.98,13.18,9,18.98,10.53,15.65,15.07,34.2,7.27,52.07-1.92,4.38-4.34,8.54-5.95,13.03-1.87,4.46-2.12,9.45-.7,14.08,2.34,6.53,9.11,10.45,15.65,12.59,12.07,3.85,25.06,3.78,37.09-.24h.03Z"/>
          </g>
        </g>
      </g>
    </g>
  </g>
</svg>