<svg width="50" height="50" viewBox="0 0 50 50" fill="none" xmlns="http://www.w3.org/2000/svg">
<g clip-path="url(#clip0_6_270)">
<path d="M39.2149 24.9936C39.2192 32.5593 33.0448 38.7269 25.4792 38.7154C17.9364 38.704 11.7878 32.5478 11.7849 25.005C11.7821 17.4379 17.9536 11.2746 25.5207 11.286C33.0662 11.296 39.2106 17.4465 39.2149 24.9936Z" fill="#19291D"/>
<path d="M27.214 4.4072C27.214 4.97817 27.224 5.54913 27.2111 6.1201C27.1882 7.11608 26.434 7.86449 25.4793 7.85447C24.549 7.84446 23.8033 7.10034 23.7904 6.13298C23.7747 4.99104 23.7733 3.84768 23.7904 2.70574C23.8062 1.73695 24.5561 1.00428 25.4922 0.999988C26.4239 0.995695 27.1811 1.73266 27.2097 2.69286C27.2269 3.26383 27.2126 3.8348 27.214 4.40577V4.4072Z" fill="#19291D"/>
<path d="M4.92215 26.7136C4.35108 26.7136 3.78001 26.7265 3.20894 26.7107C2.24427 26.685 1.50431 25.9394 1.50002 25.0093C1.49573 24.072 2.22567 23.3093 3.1889 23.2921C4.34822 23.2721 5.50896 23.2721 6.66971 23.2921C7.62579 23.3093 8.36289 24.0863 8.35287 25.0164C8.34428 25.928 7.62293 26.675 6.68832 26.7079C6.10007 26.7294 5.5104 26.7122 4.92215 26.7136Z" fill="#19291D"/>
<path d="M46.0608 23.2864C46.6318 23.2864 47.2029 23.2763 47.774 23.2892C48.7429 23.3107 49.4872 24.0448 49.5001 24.9749C49.5144 25.9294 48.7658 26.6964 47.7725 26.7107C46.6304 26.7265 45.4883 26.7293 44.3461 26.7107C43.3843 26.6936 42.6458 25.9309 42.6472 24.9993C42.6472 24.062 43.38 23.3178 44.3476 23.2907C44.9186 23.2749 45.4897 23.2878 46.0608 23.2878V23.2864Z" fill="#19291D"/>
<path d="M27.2126 45.5985C27.2126 46.1695 27.2269 46.7419 27.2097 47.3114C27.1797 48.2731 26.4211 49.0072 25.4879 49C24.5576 48.9943 23.8048 48.2516 23.7905 47.2871C23.7733 46.1452 23.7733 45.0018 23.7905 43.8599C23.8048 42.8882 24.5476 42.1541 25.4836 42.1455C26.4369 42.1369 27.1897 42.8882 27.2112 43.8842C27.224 44.4552 27.214 45.0261 27.2126 45.5971V45.5985Z" fill="#19291D"/>
<path d="M8.02222 9.46007C8.04798 8.54566 8.36572 8.01476 8.9969 7.70709C9.62952 7.398 10.2822 7.44236 10.8003 7.91459C11.6046 8.64583 12.3775 9.41714 13.1089 10.2214C13.7029 10.8739 13.6113 11.8856 12.9858 12.5024C12.3589 13.1206 11.3556 13.1964 10.703 12.5982C9.91434 11.8756 9.1572 11.1143 8.43871 10.323C8.19397 10.0525 8.10523 9.64037 8.02222 9.46007Z" fill="#19291D"/>
<path d="M9.95292 42.4818C9.04551 42.4475 8.51308 42.1341 8.20536 41.5016C7.89764 40.8676 7.94058 40.2165 8.41289 39.6985C9.1457 38.8957 9.91571 38.1215 10.7186 37.3903C11.3713 36.7964 12.3803 36.888 13.0001 37.5148C13.6184 38.1402 13.6942 39.1433 13.0945 39.7972C12.3717 40.5857 11.6117 41.3427 10.8203 42.0611C10.5498 42.3072 10.1376 42.3959 9.95149 42.4818H9.95292Z" fill="#19291D"/>
<path d="M42.9849 40.5643C42.942 41.4687 42.6228 41.9996 41.9888 42.3015C41.3518 42.6063 40.7049 42.5505 40.1882 42.0783C39.3996 41.357 38.6396 40.5972 37.9154 39.8101C37.2985 39.139 37.3787 38.1187 38.0256 37.4891C38.6554 36.8766 39.6544 36.8108 40.3099 37.4146C41.0956 38.1402 41.8556 38.8986 42.5727 39.6914C42.8174 39.9618 42.9005 40.3768 42.9849 40.5643Z" fill="#19291D"/>
<path d="M38.0942 9.81924V6.06287H46.6002V9.81924H38.0942Z" fill="#19291D"/>
</g>
<defs>
<clipPath id="clip0_6_270">
<rect width="48" height="48" fill="white" transform="translate(1.5 1)"/>
</clipPath>
</defs>
</svg>
