<?xml version="1.0" encoding="UTF-8"?>
<svg id="Capa_2" data-name="Capa 2" xmlns="http://www.w3.org/2000/svg" xmlns:xlink="http://www.w3.org/1999/xlink" viewBox="0 0 500 500">
  <defs>
    <style>
      .cls-1, .cls-2 {
        fill: #fff;
      }

      .cls-3 {
        fill: #19291d;
      }

      .cls-4 {
        fill: #263e2c;
      }

      .cls-5 {
        fill: #f0f6ea;
      }

      .cls-6 {
        fill: #f7c0bc;
      }

      .cls-7 {
        fill: #ed837e;
      }

      .cls-8 {
        fill: #60beb8;
      }

      .cls-9 {
        clip-path: url(#clippath);
      }

      .cls-10 {
        fill: #32523a;
      }

      .cls-11 {
        fill: none;
      }

      .cls-12, .cls-2 {
        isolation: isolate;
        opacity: .2;
      }

      .cls-13 {
        fill: #263238;
      }
    </style>
    <clipPath id="clippath">
      <circle class="cls-11" cx="250" cy="250" r="250"/>
    </clipPath>
  </defs>
  <g id="Capa_1-2" data-name="Capa 1">
    <g>
      <circle class="cls-5" cx="250" cy="250" r="250"/>
      <g class="cls-9">
        <g id="freepik--Character--inject-2">
          <path class="cls-10" d="m409.37,129.14c-8.65-5.42-17-11.3-25.03-17.6-.61-1.64-1.46-3.19-2.52-4.58,5.09,1.83,10.4,3.94,15.63,6.33.16.05.34.05.5,0,.5,0,.97-.28,1.19-.73.27-.66,0-1.41-.64-1.74-6.69-2.98-13.52-5.64-19.8-7.84-26.22-30.76-67.43-63.62-91.99-60.41-3.58-1.79-7.24-3.71-10.86-5.73-.58-.36-1.34-.18-1.71.4-.01.02-.03.04-.04.06-.35.62-.15,1.41.46,1.79,2.7,1.51,5.41,2.98,8.11,4.58-1.91.65-3.75,1.48-5.5,2.48l-3.07-.46c-4.58-2.61-9.17-5.5-13.38-8.57-.58-.41-1.38-.26-1.79.32,0,0,0,0,0,0-.41.6-.27,1.41.32,1.83,2.8,1.93,5.59,3.76,8.43,5.5l-5.27-.6c-.7-.03-1.31.46-1.42,1.15-.05.72.48,1.35,1.19,1.42,0,0,4.58.46,11.05,1.42h.41c-17.65,12.05-39.56,40.52-50.19,57.3,22.46,44.83,136.23,69.44,136.23,69.44,0,0,2.75-21.5,22.18-47.21.45-.67.85-1.38,1.19-2.11,4.31,3.53,7.1,5.59,7.15,5.68.26.07.52.07.78,0,.41,0,.8-.19,1.05-.5.42-.58.3-1.4-.28-1.83,0,0-3.03-2.25-7.61-6,.95-2.48,1.3-5.15,1.01-7.79,12.38,9.49,22.92,15.81,22.92,15.91.22.06.46.06.69,0,.45.01.87-.21,1.1-.6.08-.49-.11-.98-.5-1.28Z"/>
          <path class="cls-8" d="m454.15,177.73c4.58.92,7.65,1.38,7.75,1.38h0c.64,0,1.19-.46,1.28-1.1.11-.7-.37-1.36-1.07-1.46,0,0-.02,0-.03,0,0,0-4.86-.78-12.05-2.29-1.28-1.05-2.61-2.06-3.99-3.12,5.13,0,10.45-.28,15.81,0h0c.71,0,1.28-.57,1.28-1.28,0-.7-.54-1.28-1.24-1.33-6.55,0-13.11,0-19.21.32-2.2-1.56-4.58-3.03-6.88-4.58,13.48,2.02,23.51,2.66,23.65,2.66h0c.67,0,1.24-.52,1.28-1.19.05-.71-.48-1.32-1.19-1.37,0,0,0,0,0,0-10.17-.75-20.3-2.02-30.34-3.8-8.09-4.27-16.68-7.5-25.58-9.63-65.73-15.03-129.26-58.17-173.77-67.38-16.32-3.35-38.64-8.39-60.05-12.51-11.22-4.67-22.12-10.07-32.64-16.18-.6-.37-1.39-.18-1.77.42,0,.01-.01.02-.02.04-.35.61-.14,1.38.46,1.74,4.58,2.61,8.85,5,13.15,7.2-9.17-2.38-17.97-4.08-24.52-5.18-4.35-2.7-8.85-5.64-13.25-8.8-.57-.42-1.37-.29-1.79.28-.4.59-.28,1.39.28,1.83,2.75,1.97,5.55,3.85,8.34,5.68-3.25-.5-5.18-.73-5.27-.73-.71-.08-1.34.44-1.42,1.15s.44,1.34,1.15,1.42c0,0,4.58.55,11,1.65,1.7,1.05,3.35,2.06,4.95,2.98-17.28-1.65-28.56-.5-26.17,6.23,5.04,14.44,36.39,32.36,75.4,41.53-6.55-.28-13.75-.78-20.9-1.7-.7-.06-1.33.45-1.42,1.15-.08.69.41,1.33,1.1,1.42,11.1,1.34,22.28,1.98,33.46,1.93h1.79c5.18.87,10.4,1.65,15.77,2.2,51.84,5.13,148.23,90.62,209.2,106.89,72.88,19.39,69.12-17.69,37.45-46.43Z"/>
          <path class="cls-4" d="m454.15,177.73c4.58.92,7.65,1.38,7.75,1.38h0c.64,0,1.19-.46,1.28-1.1.11-.7-.37-1.36-1.07-1.46,0,0-.02,0-.03,0,0,0-4.86-.78-12.05-2.29-1.28-1.05-2.61-2.06-3.99-3.12,5.13,0,10.45-.28,15.81,0h0c.71,0,1.28-.57,1.28-1.28,0-.7-.54-1.28-1.24-1.33-6.55,0-13.11,0-19.21.32-2.2-1.56-4.58-3.03-6.88-4.58,13.48,2.02,23.51,2.66,23.65,2.66h0c.67,0,1.24-.52,1.28-1.19.05-.71-.48-1.32-1.19-1.37,0,0,0,0,0,0-10.17-.75-20.3-2.02-30.34-3.8-8.09-4.27-16.68-7.5-25.58-9.63-65.73-15.03-129.26-58.17-173.77-67.38-16.32-3.35-38.64-8.39-60.05-12.51-11.22-4.67-22.12-10.07-32.64-16.18-.6-.37-1.39-.18-1.77.42,0,.01-.01.02-.02.04-.35.61-.14,1.38.46,1.74,4.58,2.61,8.85,5,13.15,7.2-9.17-2.38-17.97-4.08-24.52-5.18-4.35-2.7-8.85-5.64-13.25-8.8-.57-.42-1.37-.29-1.79.28-.4.59-.28,1.39.28,1.83,2.75,1.97,5.55,3.85,8.34,5.68-3.25-.5-5.18-.73-5.27-.73-.71-.08-1.34.44-1.42,1.15s.44,1.34,1.15,1.42c0,0,4.58.55,11,1.65,1.7,1.05,3.35,2.06,4.95,2.98-17.28-1.65-28.56-.5-26.17,6.23,5.04,14.44,36.39,32.36,75.4,41.53-6.55-.28-13.75-.78-20.9-1.7-.7-.06-1.33.45-1.42,1.15-.08.69.41,1.33,1.1,1.42,11.1,1.34,22.28,1.98,33.46,1.93h1.79c5.18.87,10.4,1.65,15.77,2.2,51.84,5.13,148.23,90.62,209.2,106.89,72.88,19.39,69.12-17.69,37.45-46.43Z"/>
          <path class="cls-6" d="m187.7,479.56l-2.48,3.94-2.2,3.25-4.26,6.23c-2.84,4.08-5.82,7.98-8.75,11.87-5.91,7.84-12.19,15.22-18.66,22.6-6.46,7.38-13.29,14.39-20.35,21.36-7.06,6.97-14.44,13.75-22.32,20.17-7.88,6.42-15.91,12.74-24.52,18.7-8.86,6.01-18.04,11.54-27.5,16.55-9.89,5.32-20.16,9.91-30.71,13.75-11.21,3.89-22.72,6.85-34.42,8.85l-5.5.96c-3.25.55-6.56.55-9.81,0-13.14-2.27-26.11-5.43-38.82-9.44-12.13-3.88-24.07-8.36-35.75-13.43-5.73-2.57-11.41-5.18-17.01-7.93-5.59-2.75-11.05-5.78-16.5-8.75-5.45-2.98-10.73-6.28-16-9.63-5.27-3.35-10.27-6.78-15.81-10.86-13.12-9.63-15.95-28.08-6.31-41.2,5.74-7.82,14.96-12.31,24.65-12.02h3.35c5.18,0,11.05.92,16.59,1.33l16.73,1.7,16.55,1.6c5.45.6,10.91,1.05,16.27,1.51,10.77,1.15,21.41,1.65,31.67,2.25,10.27.6,20.26.69,29.7.6l-14.99.83c10.94-3.9,21.32-9.2,30.89-15.77,5.5-3.73,10.81-7.73,15.91-12.01,5.36-4.22,10.63-9.17,15.86-13.75,10.31-9.95,20.63-20.72,30.39-32.09,4.9-5.64,9.63-11.6,14.35-17.42l6.88-8.85,5.96-7.88,2.15-2.84c19.06-25.64,55.3-30.96,80.94-11.9,24.47,18.2,30.61,52.26,14.04,77.86l-.18-.14Z"/>
          <path class="cls-3" d="m240.97,385.96c-14.03,124.31-185.18,229.5-185.18,229.5-36.3-3.99-72.05-64.17-77.19-103.41,0,0,105.06-147,158.32-176.06,49.04-27.09,110.19-6.65,104.05,49.96Z"/>
          <path class="cls-13" d="m-10.17,489.28c-10.86,10.45-18.79,18.33-18.75,30.21,4.03,11.18,29.84,93.14,47.21,104.51,17.37,11.37,43.36-3.71,65.64-19.76,1.74-44-65.23-67.33-94.1-114.96Z"/>
          <path class="cls-2" d="m-10.17,489.28c-10.86,10.45-18.79,18.33-18.75,30.21,4.03,11.18,29.84,93.14,47.21,104.51,17.37,11.37,43.36-3.71,65.64-19.76,1.74-44-65.23-67.33-94.1-114.96Z"/>
          <path class="cls-3" d="m182.34,314.55c73.46-6.98,147.46-5.81,220.66,3.48,42.31,5.96,72.19,32.09,67.06,119.17-10.4,175.83-16.55,315.44-38.91,378.65,0,0-280.01,88.69-372.79-.69-22.6-211.67,30.07-385.02,64.72-458.36,10.99-23.5,33.47-39.53,59.27-42.26Z"/>
          <path class="cls-2" d="m197.74,595.12c-.64,0-1.19-.46-1.28-1.1-1.6-10.5,2.48-22.09,6.05-32.36,2.37-5.89,4.02-12.05,4.9-18.33.28-4.58,0-9.49,0-14.03-.64-7.61-.03-15.27,1.79-22.69l1.33-4.17c2.66-8.2,4.58-14.16,2.61-20.26-1.33-4.08,1.33-13.29,4.17-22.92,2.52-8.71,5.36-18.61,4.13-21.86-2.93-7.75-3.16-14.53,3.62-30.25,2.69-6.81,3.65-14.18,2.8-21.45-.82-5.46-.05-11.05,2.2-16.09.31-.61,1.05-.86,1.66-.55.03.01.05.03.08.04.62.34.85,1.12.5,1.74-2.01,4.63-2.65,9.73-1.83,14.71.87,7.68-.17,15.46-3.03,22.64-6.46,14.94-6.33,21.04-3.58,28.28,1.56,4.03-1.19,13.75-4.08,23.51-2.48,8.53-5.27,18.33-4.17,21.5,2.25,6.92,0,13.52-2.61,21.91-.46,1.33-.87,2.7-1.33,4.13-1.74,7.15-2.3,14.53-1.65,21.86,0,4.58.23,9.17,0,14.21-.9,6.56-2.61,12.98-5.09,19.11-3.48,9.95-7.43,21.27-5.91,31.08.11.7-.37,1.36-1.07,1.46,0,0-.02,0-.03,0l-.18-.14Z"/>
          <path class="cls-6" d="m206.77,333.76c8.43-8.25,17.28-3.44,21.36-15.91,1.82-9.79.2-19.91-4.58-28.65l100.38-54.18c-1.97,36.94-3.44,66.1,12.93,80.81,4.58,27.5-41.89,50.65-102.12,47.76-28.33-1.33-40.11-18.01-27.96-29.84Z"/>
          <path class="cls-12" d="m224.97,292.32l79.3-19.8c-20.03,31.49-56.15,48.77-75.54,41.25.62-7.36-.67-14.75-3.76-21.45Z"/>
          <path class="cls-13" d="m220.62,126.03c-11.62,8.49-22.72,17.67-33.23,27.5,3.82,1.17,7.91,1.17,11.73,0-9.9,17.23-6.05,40.84-1.05,47.85,24.57-23.06,22.55-75.35,22.55-75.35Z"/>
          <path class="cls-6" d="m257.79,111.54c38.41,3.8,92.31,37.91,87.59,79.43-5.45,48.27-18.33,79.57-50.97,95.75-65.32,32.09-97.17,1.15-102.49-48.54-4.81-44.69,11.6-131.96,65.87-126.65Z"/>
          <path class="cls-13" d="m323.47,142.16c2.52,20.76-.46,40.98-11.55,46.62,14.94.46,20.31-2.48,20.31-2.48,0,0-26.54,20.17-8.75,33.09,13.32-8.14,24.92-18.8,34.15-31.4,0,0-3.39-26.77-34.15-45.84Z"/>
          <path class="cls-12" d="m276.21,188.55c6.05-2,12.64-1.52,18.33,1.33-6.14.76-12.37.31-18.33-1.33Z"/>
          <path class="cls-12" d="m276.21,192.95c5.76-.65,11.51,1.28,15.72,5.27-5.56-.59-10.93-2.39-15.72-5.27Z"/>
          <path class="cls-13" d="m245.18,240.16c-2.21,0-4.42-.16-6.6-.5-.7-.12-1.18-.76-1.1-1.47.09-.7.73-1.2,1.43-1.11.03,0,.05,0,.08.01,11.11,1.93,22.47-1.56,30.57-9.4.52-.52,1.36-.52,1.88,0,.49.51.49,1.32,0,1.83-6.98,6.92-16.44,10.75-26.26,10.63Z"/>
          <path class="cls-6" d="m357.34,233.47c-6.79,9.18-16.95,15.28-28.24,16.96-15.03,2.06-20.67-11.87-14.9-24.98,5.18-11.83,19.21-27.18,33.55-23.24s17.74,19.89,9.58,31.26Z"/>
          <path class="cls-13" d="m192.01,203.86c-7.24,30.71-16.96,57.16-8.07,68.75,1.09-2.12,2.43-4.1,3.99-5.91.76,15.24,8.77,29.2,21.54,37.54.85-2.8,1.35-5.69,1.47-8.62,0,0,20.4,11.6,65.27,1.88-2.44,3.33-3.33,7.56-2.43,11.6,29.5-7.54,48.47-36.23,43.87-66.33-1.58-11.69.81-23.57,6.78-33.74,0,0-6.55-6.14-14.3,4.22-7.75,10.36-14.9,59.27-38.27,52.3-20.03-5.96-28.28-8.62-40.34.5-14.3-12.93-28.74-19.02-34.15-15.36-5.13-6.97-5.91-31.72-5.36-46.84Z"/>
          <path class="cls-13" d="m278.23,293.97c-6.46,7.1-28.46,13.29-38.09,14.3,3.46-3.03,6-6.97,7.33-11.37l30.76-2.93Z"/>
          <path class="cls-13" d="m267.73,189.74c-.28,4.22-2.75,7.47-5.55,7.29s-4.58-3.8-4.58-8.07,2.75-7.47,5.55-7.24c2.8.23,4.86,3.76,4.58,8.02Z"/>
          <ellipse class="cls-13" cx="213.08" cy="186.37" rx="7.65" ry="5.04" transform="translate(14.23 387.85) rotate(-86.55)"/>
          <path class="cls-7" d="m228.96,190.84l.23,35.61s-11.46,2.84-18.33-3.39c3.15-12.12,9.39-23.22,18.11-32.22Z"/>
          <path class="cls-13" d="m275.3,178.92c.42.09.86.09,1.28,0,1.27-.44,1.93-1.83,1.49-3.09,0-.02-.02-.05-.02-.07-2.54-7.63-8.6-13.58-16.27-16-1.32-.34-2.67.46-3.01,1.78,0,.02,0,.03-.01.05-.29,1.35.54,2.69,1.88,3.03h0c6.06,1.97,10.8,6.72,12.74,12.79.36.79,1.08,1.35,1.93,1.51Z"/>
          <path class="cls-13" d="m192.66,169.11c.83-.02,1.61-.45,2.06-1.15,3.19-5.48,8.85-9.05,15.17-9.58,1.37-.05,2.46-1.19,2.43-2.57-.07-1.36-1.2-2.43-2.57-2.43-7.97.58-15.16,5.01-19.25,11.87-.72,1.17-.37,2.69.78,3.44.41.26.89.4,1.38.41Z"/>
          <path class="cls-10" d="m174.27,314.14c-10.31,12.42-50.42,69.12-53.35,219.37-.05,1.16.82,2.15,1.97,2.25,7.25.15,14.49-.25,21.68-1.19,1.07-.12,1.89-1.03,1.88-2.11,0-16.59,2.2-140.3,50.97-219.1.61-1.02.27-2.34-.75-2.95-.35-.21-.76-.32-1.18-.3-6.9.18-13.73,1.34-20.31,3.44-.35.11-.67.32-.92.6Z"/>
          <path class="cls-4" d="m231.52,363.37c18.11-2.25,33.09-19.3,33.09-19.3,0,0,47.72-11.73,60.78-34.93,2.75-5,8.91-7.01,14.07-4.58,5.05,2.09,9.79,4.86,14.07,8.25,0,0-31.44,79.57-122.02,50.56Z"/>
          <path class="cls-10" d="m264.62,344.07s17.51,20.63,16.82,45.84c43.54-17.88,75.26-61.92,76.55-79.98-18.33-12.88-29.47-10.27-29.47-10.27,0,0-25.16,33.05-63.9,44.42Z"/>
          <path class="cls-4" d="m231.52,363.37c-6.46-5.18-6.1-17.1-2.34-20.26-1.56-10.45,0-15.95-.32-32.09-16.41-1.05-30.8,17.14-35.98,29.66-5.18,12.51,27.59,25.3,38.64,22.69Z"/>
          <path class="cls-10" d="m229.19,343.11c-11.64,5.68-22.51,26.08-20.08,38.46-18.7-12.51-20.12-55,3.16-70.4,5.59-2.89,16.59,0,16.59,0,0,0,2.57,22.32.32,31.95Z"/>
          <path class="cls-1" d="m245.96,424.38c-.78,4.58-3.3,8.2-5.64,7.79-2.34-.41-3.58-4.58-2.8-9.17.78-4.58,3.3-8.2,5.64-7.79,2.34.41,3.58,4.45,2.8,9.17Z"/>
          <path class="cls-1" d="m238.81,475.21c-.32,4.58-2.52,8.48-4.9,8.3s-3.94-4.17-3.62-9.17c.32-5,2.57-8.43,4.95-8.25s3.94,4.4,3.58,9.12Z"/>
          <path class="cls-6" d="m500.54,394.99l3.25,3.3,2.7,2.84,5.13,5.55c3.35,3.71,6.51,7.47,9.63,11.23,6.33,7.47,12.15,15.26,17.88,23.19,5.73,7.93,11.09,16.18,16.32,24.61,5.23,8.43,10.13,17.14,14.67,26.22,4.54,9.08,8.89,18.33,12.74,28.1,3.89,9.96,7.24,20.12,10.04,30.44,2.96,10.82,5.13,21.83,6.51,32.96,1.39,11.8,1.74,23.7,1.05,35.57l-.37,5.73c-.23,3.24-.97,6.43-2.2,9.44-5.5,13.27-12.45,25.89-20.72,37.63-7.67,10.95-16.34,21.17-25.9,30.53-9.16,8.96-18.99,17.18-29.43,24.61-5.13,3.67-10.45,7.01-15.86,10.27-2.75,1.6-5.5,3.16-8.3,4.58l-9.17,4.58c-13.39,6.73-29.7,1.32-36.43-12.07-2.76-5.49-3.57-11.76-2.3-17.77l3.16-15.22c.42-1.03.94-2.01,1.56-2.93l1.93-3.21,3.94-6.55c2.7-4.31,5.18-8.75,7.7-13.11,2.52-4.35,4.86-8.71,7.2-13.02,2.34-4.31,4.58-8.57,6.51-12.88,7.68-15.15,13.23-31.28,16.5-47.94l-2.57,15.13c-.56-5.44-1.51-10.83-2.84-16.13-1.52-5.94-3.37-11.78-5.55-17.51-2.25-5.96-5.09-12.05-8.11-18.33-3.03-6.28-6.42-12.38-10.04-18.33-7.38-12.28-15.58-24.71-24.57-36.67-4.58-6.1-9.17-12.01-13.75-17.92l-7.15-8.8-6.33-7.52-2.34-2.8c-20.47-24.56-17.16-61.06,7.39-81.54,23.04-19.21,56.93-17.64,78.09,3.61v.14Z"/>
          <path class="cls-3" d="m421.1,322.67c118.07,41.25,182.47,231.66,182.47,231.66-11.96,34.19-78.43,55.78-117.98,51.98,0,0-119.91-135.13-136.36-193.57-15.26-54.09,18.11-109.14,71.87-90.07Z"/>
          <path class="cls-10" d="m371.19,311.8c-10.22,10.63-43.64,74.12-46.75,227.26-.05.89.46,1.72,1.28,2.06,6.85,2.49,13.89,4.45,21.04,5.87,1.14.25,2.26-.46,2.52-1.6.03-.14.05-.28.05-.42.96-20.67,8.8-164.32,45.24-227.3.58-1.01.24-2.3-.76-2.88-.14-.08-.28-.14-.43-.19-6.69-2.18-13.68-3.33-20.72-3.39-.55-.02-1.09.2-1.47.6Z"/>
          <path class="cls-13" d="m323.47,142.16c-17.97-.78-65.82-14.39-65.82-14.39,4.23-2.85,9.06-4.69,14.12-5.36-24.02.41-36.67,12.28-70.63,5.59,5-9.17,32.09-22.55,67.2-16.68,21.34,3.76,40.77,14.63,55.14,30.85Z"/>
        </g>
      </g>
    </g>
  </g>
</svg>