<svg width="51" height="50" viewBox="0 0 51 50" fill="none" xmlns="http://www.w3.org/2000/svg">
<g clip-path="url(#clip0_101_653)">
<g clip-path="url(#clip1_101_653)">
<path d="M50.5 40.1434C50.2887 40.1395 50.0773 40.1316 49.866 40.1316C33.6411 40.1316 17.4163 40.1316 1.19142 40.1316C0.98269 40.1316 0.77396 40.1316 0.535225 40.1316V36.4462H1.11054C5.08163 36.4462 9.05272 36.4071 13.0225 36.458C16.6453 36.505 19.6953 35.2682 22.1975 32.6565C23.6299 31.1615 25.3585 30.2287 27.4171 29.9443C27.8658 29.8817 28.325 29.8634 28.779 29.8621C35.8745 29.8569 42.9701 29.8582 50.0656 29.8595C50.2104 29.8595 50.3565 29.8791 50.5013 29.8908V40.1447L50.5 40.1434Z" fill="#19291D"/>
<path d="M50.5 26.9595C50.3056 26.949 50.1125 26.9281 49.9182 26.9281C42.9388 26.9268 35.9593 26.9425 28.9812 26.9203C25.4941 26.9099 22.5276 28.1049 20.1063 30.6096C18.1794 32.603 15.8612 33.5592 13.0786 33.5266C9.09316 33.4797 5.10772 33.5149 1.12097 33.5149C0.930506 33.5149 0.74004 33.5149 0.502609 33.5149C0.502609 32.4765 0.502609 31.4889 0.502609 30.5C0.502609 29.703 0.497391 28.9059 0.503914 28.1088C0.513046 27.1591 1.10923 26.5629 2.06678 26.5603C4.44239 26.5537 6.8167 26.5446 9.19231 26.5616C11.5562 26.5785 13.71 25.9393 15.6669 24.6086C17.2936 23.5024 18.9439 22.43 20.572 21.3277C21.9627 20.3871 23.4903 19.9396 25.1641 19.9409C32.9888 19.9448 40.8149 19.95 48.6397 19.9331C49.5451 19.9318 50.1804 20.2318 50.4987 21.102V26.9608L50.5 26.9595Z" fill="#19291D"/>
<path d="M50.5 46.5879C50.1543 47.4411 49.5111 47.7164 48.611 47.7151C33.1989 47.6994 17.7855 47.7046 2.37335 47.7033C0.998343 47.7033 0.502609 47.2011 0.502609 45.8143C0.502609 44.9207 0.502609 44.0271 0.502609 43.0865C0.681334 43.0773 0.836577 43.0617 0.991821 43.0617C17.3811 43.0617 33.7703 43.0617 50.1595 43.0617C50.273 43.0617 50.3865 43.0695 50.5013 43.0734V46.5892L50.5 46.5879Z" fill="#19291D"/>
<path d="M9.30711 23.5989H6.41098C6.39924 23.4476 6.38098 23.3067 6.37967 23.1658C6.37706 22.4992 6.3314 21.8273 6.39011 21.1659C6.46577 20.3023 6.27791 19.7596 5.41951 19.2547C3.87621 18.348 3.28916 16.8217 3.48615 15.0305C3.64661 13.5799 4.05103 12.1892 4.72418 10.899C5.05032 10.2728 5.45343 9.65573 5.94264 9.15217C7.08544 7.97545 8.63787 7.99763 9.79371 9.16521C10.9783 10.3628 11.504 11.9048 11.9267 13.4846C12.2006 14.51 12.3846 15.5524 12.1393 16.6143C11.8223 17.9828 11.0252 18.9938 9.76371 19.5913C9.37495 19.7752 9.29537 19.9866 9.30189 20.3636C9.32016 21.432 9.30842 22.5018 9.30842 23.5976L9.30711 23.5989Z" fill="#19291D"/>
<path d="M29.9022 16.9887H26.9735C26.9735 16.0377 26.9839 15.101 26.9631 14.1643C26.9592 14.0117 26.8509 13.7873 26.7256 13.7207C24.5901 12.5936 23.7799 11.0399 24.1439 8.58077C24.3748 7.02573 24.8575 5.53853 25.7081 4.20787C26.042 3.68474 26.4765 3.1864 26.967 2.80938C27.9519 2.05143 29.2748 2.11405 30.1775 3.01681C30.762 3.60125 31.2577 4.32006 31.6347 5.05975C32.3379 6.44259 32.7906 7.92849 32.8284 9.49527C32.8753 11.4286 31.9713 12.8167 30.248 13.6647C29.991 13.7912 29.8918 13.9177 29.897 14.2034C29.9153 15.1127 29.9036 16.0233 29.9036 16.99L29.9022 16.9887Z" fill="#19291D"/>
<path d="M41.6812 16.9848H38.7524C38.7524 16.0507 38.7459 15.1297 38.7563 14.2087C38.7589 13.9582 38.7067 13.8055 38.4511 13.6816C36.4603 12.7136 35.5484 10.9812 35.8732 8.7608C36.0872 7.3036 36.4994 5.89598 37.2378 4.6175C37.59 4.00827 38.0349 3.41731 38.5528 2.94636C39.5012 2.08535 40.8371 2.06839 41.809 2.9007C42.3165 3.33512 42.76 3.88956 43.0966 4.46878C43.9733 5.97686 44.456 7.62844 44.6047 9.36742C44.756 11.1299 43.7306 12.8702 42.0817 13.632C41.7568 13.7821 41.6668 13.9543 41.6746 14.2869C41.6955 15.1766 41.6812 16.069 41.6812 16.9848Z" fill="#19291D"/>
</g>
</g>
<defs>
<clipPath id="clip0_101_653">
<rect width="50" height="50" fill="white" transform="translate(0.5)"/>
</clipPath>
<clipPath id="clip1_101_653">
<rect width="50" height="45.4301" fill="white" transform="translate(0.5 2.28494)"/>
</clipPath>
</defs>
</svg>
