<svg width="43" height="49" viewBox="0 0 43 49" fill="none" xmlns="http://www.w3.org/2000/svg">
<g clip-path="url(#clip0_6_231)">
<path d="M23.8157 12.9939C25.0544 14.7031 26.2742 16.3289 27.4346 17.9987C30.0308 21.731 32.4994 25.5452 34.4479 29.6749C35.2027 31.273 35.8836 32.9062 36.2023 34.6563C36.705 37.4231 36.1168 40.0175 34.7826 42.438C32.2183 47.0863 27.0116 49.6705 21.9686 48.851C16.5475 47.9701 12.4505 43.9865 11.3813 38.6195C10.8772 36.0864 11.4001 33.7214 12.3534 31.3972C13.8586 27.7277 15.8666 24.3371 18.0628 21.0634C19.8056 18.4647 21.6702 15.9477 23.4825 13.3971C23.5636 13.2832 23.6607 13.1824 23.8172 12.9954L23.8157 12.9939Z" fill="#19291D"/>
<path d="M7.59877 3.15973C10.0645 6.43195 12.3984 9.70271 14.0644 13.4263C16.1868 18.1681 12.3723 23.6973 6.97582 23.2298C2.15011 22.812 -0.606812 17.854 0.923042 14.0238C1.45183 12.7003 2.08637 11.4104 2.78321 10.1672C4.16239 7.71016 5.81539 5.43713 7.59877 3.15973Z" fill="#19291D"/>
<path d="M37.0006 -4.03216e-06C37.8177 1.12774 38.6666 2.17807 39.3809 3.31458C40.2994 4.77685 41.199 6.26542 41.9466 7.81972C43.7343 11.5375 40.9325 15.4583 37.2686 15.6394C33.2672 15.8367 30.5654 11.9392 31.6765 8.71082C32.143 7.35664 32.8254 6.05214 33.5773 4.83236C34.5508 3.25322 35.6939 1.77926 36.7645 0.261481C36.8166 0.188441 36.8847 0.127087 36.9992 -0.00146484L37.0006 -4.03216e-06Z" fill="#19291D"/>
</g>
<defs>
<clipPath id="clip0_6_231">
<rect width="42" height="49" fill="white" transform="translate(0.5)"/>
</clipPath>
</defs>
</svg>
