<svg width="51" height="50" viewBox="0 0 51 50" fill="none" xmlns="http://www.w3.org/2000/svg">
<g clip-path="url(#clip0_101_619)">
<g clip-path="url(#clip1_101_619)">
<path d="M26.7025 26.7865C30.766 26.7865 34.8282 26.7754 38.8917 26.7892C44.3861 26.8073 48.9933 30.5244 50.2171 35.9038C51.7404 42.5977 46.9415 49.2818 40.1363 49.9432C34.6571 50.4769 29.5628 47.1397 27.9526 41.9613C27.3689 40.0826 28.6784 38.3052 30.5729 38.405C31.696 38.4646 32.5418 39.1509 32.9489 40.3128C33.7257 42.5325 35.2325 43.9772 37.516 44.547C40.9035 45.3942 44.4703 43.0552 45.1201 39.5821C45.7783 36.0605 43.3719 32.6456 39.8838 32.1618C39.4767 32.1049 39.0614 32.0786 38.6502 32.0786C30.4556 32.0744 22.2609 32.0758 14.0662 32.073C12.6864 32.073 11.624 31.2758 11.3522 30.0585C10.9658 28.3254 12.1911 26.7962 13.9986 26.7878C16.6492 26.7768 19.3012 26.7851 21.9518 26.7851C23.5358 26.7851 25.1199 26.7851 26.7039 26.7851L26.7025 26.7865Z" fill="#19291D"/>
<path d="M13.0273 17.9422C16.2285 17.9422 19.431 17.9533 22.6322 17.9394C25.5587 17.9255 28.1045 16.1148 28.9089 13.5083C29.9258 10.2182 28.1541 6.71599 24.9171 5.6193C21.6815 4.52122 18.1561 6.22795 17.0067 9.48475C16.67 10.4386 16.1705 11.1956 15.1729 11.4951C14.1657 11.796 13.2509 11.5755 12.514 10.8199C11.7621 10.0477 11.5565 9.10625 11.9083 8.0872C13.313 4.02486 16.0739 1.3587 20.2285 0.335487C26.8778 -1.30054 33.4126 3.2429 34.3605 10.056C35.1842 15.9803 31.1676 21.6551 25.2248 22.9168C24.3555 23.1012 23.4531 23.2149 22.5659 23.2177C16.1457 23.2426 9.72408 23.2329 3.30385 23.2301C1.79848 23.2301 0.662898 22.2568 0.513879 20.8607C0.345543 19.2912 1.54321 17.9533 3.16173 17.9477C6.4498 17.9339 9.73788 17.9436 13.0246 17.9436L13.0273 17.9422Z" fill="#19291D"/>
<path d="M11.5357 41.9294C8.73054 41.9294 5.92677 41.9377 3.12163 41.9252C1.95983 41.9211 0.962233 41.1682 0.62832 40.0951C0.291648 39.0151 0.625561 37.8158 1.56521 37.196C2.0164 36.8993 2.60696 36.6664 3.13681 36.6636C8.72778 36.6262 14.3201 36.6331 19.9125 36.6442C21.4068 36.647 22.5382 37.7977 22.5493 39.2674C22.5603 40.7537 21.4151 41.9197 19.8973 41.9266C17.1101 41.9377 14.3229 41.9294 11.5357 41.9294Z" fill="#19291D"/>
</g>
</g>
<defs>
<clipPath id="clip0_101_619">
<rect width="50" height="50" fill="white" transform="translate(0.5)"/>
</clipPath>
<clipPath id="clip1_101_619">
<rect width="50" height="50" fill="white" transform="translate(0.5)"/>
</clipPath>
</defs>
</svg>
