<svg width="47" height="47" viewBox="0 0 47 47" fill="none" xmlns="http://www.w3.org/2000/svg">
<g clip-path="url(#clip0_6_295)">
<path d="M29.6569 0C30.7947 1.08312 31.9746 2.127 33.0633 3.25776C36.2637 6.58277 39.1615 10.1558 41.6318 14.0609C43.857 17.5793 45.7248 21.2672 46.5642 25.3853C47.8449 31.671 46.3063 37.1959 41.842 41.8058C39.1012 44.6362 35.6934 46.2854 31.7714 46.8277C27.712 47.3881 23.9315 46.5796 20.3962 44.5381C19.9801 44.2971 19.6886 44.0043 19.7292 43.4886C19.7685 42.9912 20.116 42.7796 20.5223 42.5793C21.1921 42.25 21.8255 41.8464 22.4953 41.5172C22.8568 41.3392 23.2561 41.1809 23.6513 41.1374C25.2515 40.9637 26.3346 39.8652 26.4383 38.2482C26.5014 37.2702 26.9862 36.9002 27.9545 37.0684C28.8793 37.2281 29.8069 37.3486 30.6925 36.8932C32.3277 36.0539 32.8069 34.0404 31.7294 32.5524C31.6761 32.4781 31.6173 32.4066 31.5654 32.331C31.1703 31.7495 31.3062 31.1722 31.9171 30.8191C32.5519 30.4534 33.1726 30.0597 33.8228 29.7248C34.1535 29.5538 34.5304 29.4235 34.8989 29.3843C36.544 29.2105 37.7645 27.913 37.6888 26.3675C37.6047 24.6665 36.296 23.4755 34.5612 23.5105C33.1628 23.5385 31.8863 23.9435 30.7205 24.7127C30.4528 24.8893 30.1936 25.0826 29.9134 25.2396C29.3991 25.5282 28.8779 25.5534 28.3496 25.2452C27.6126 24.815 26.8713 24.3877 26.1216 23.9799C25.4533 23.6156 25.3384 23.0229 25.8274 22.3293C26.7032 21.0865 26.6345 19.6152 25.6228 18.5489C24.8115 17.6928 23.7802 17.5527 22.6648 17.6704C21.3182 17.8119 20.123 18.3261 19.0482 19.1192C18.2692 19.6951 17.5265 19.7455 16.7404 19.157C16.4602 18.9468 16.1449 18.7843 15.8492 18.5923C15.1598 18.144 15.0491 17.6872 15.4457 16.96C16.76 14.5527 18.2594 12.266 19.9114 10.0787C22.5177 6.62901 25.3846 3.41049 28.5304 0.444176C28.7055 0.278836 28.9129 0.147125 29.1049 0C29.2884 0 29.472 0 29.6555 0L29.6569 0Z" fill="#19291D"/>
<path d="M-6.36155e-05 20.3831C0.348842 19.6895 0.595458 19.5718 1.37034 19.6054C2.53616 19.6572 3.51842 20.1449 4.44183 20.8034C4.98411 21.1901 5.56141 21.4634 6.24801 21.518C7.12378 21.5867 7.91407 21.4059 8.6315 20.8987C9.55071 20.2485 10.5091 19.7091 11.675 19.618C13.0075 19.5129 14.2224 19.7932 15.3266 20.554C15.9936 21.0136 16.6535 21.4662 17.5153 21.5222C18.3911 21.5783 19.1799 21.4031 19.8988 20.9001C20.6526 20.3733 21.4219 19.8618 22.3523 19.7119C22.7853 19.6418 23.2351 19.6068 23.6695 19.6446C24.1571 19.6881 24.4626 20.086 24.471 20.554C24.4794 21.015 24.1837 21.4732 23.7045 21.4886C22.5023 21.5264 21.5943 22.1724 20.6134 22.7455C18.6699 23.879 16.6956 23.8034 14.8179 22.5577C13.9197 21.9622 13.0314 21.4564 11.895 21.5713C11.214 21.6399 10.6283 21.8935 10.0874 22.2831C9.0869 23.0047 8.00796 23.4923 6.74545 23.5091C5.59364 23.5245 4.53291 23.2457 3.58848 22.5857C2.78978 22.0281 1.98127 21.5376 0.954173 21.539C0.459539 21.539 0.161078 21.207 -0.00146484 20.7544V20.3873L-6.36155e-05 20.3831Z" fill="#19291D"/>
<path d="M-6.36155e-05 38.0114C0.348842 37.3178 0.595458 37.2001 1.37034 37.2337C2.53616 37.2856 3.51842 37.7732 4.44183 38.4317C4.98411 38.8185 5.56141 39.0917 6.24801 39.1463C7.12378 39.215 7.91407 39.0342 8.6315 38.527C9.55071 37.8769 10.5091 37.3374 11.675 37.2463C13.0075 37.1412 14.2224 37.4201 15.3266 38.1809C15.9936 38.6405 16.6535 39.0931 17.5153 39.1491C18.3911 39.2052 19.1799 39.03 19.8988 38.527C20.6526 38.0002 21.4219 37.4887 22.3523 37.3388C22.7853 37.2688 23.2351 37.2337 23.6695 37.2716C24.1571 37.315 24.4626 37.7129 24.471 38.1809C24.4794 38.6419 24.1837 39.1001 23.7045 39.1155C22.5037 39.1534 21.5943 39.7993 20.6134 40.3724C18.6699 41.5059 16.6956 41.4303 14.8179 40.1846C13.9197 39.5891 13.0314 39.0833 11.895 39.1982C11.214 39.2668 10.6283 39.5205 10.0874 39.91C9.0869 40.6316 8.00796 41.1192 6.74545 41.136C5.59364 41.1514 4.53291 40.8726 3.58848 40.2126C2.78978 39.655 1.98127 39.1646 0.954173 39.166C0.460941 39.166 0.159676 38.8339 -0.00146484 38.3813V38.0142L-6.36155e-05 38.0114Z" fill="#19291D"/>
<path d="M0 26.2596C0.350307 25.5647 0.594121 25.4427 1.3704 25.482C2.3975 25.5338 3.30269 25.8995 4.13783 26.474C4.78099 26.9168 5.42135 27.3386 6.24808 27.3946C7.14066 27.4548 7.94356 27.2755 8.668 26.7473C9.67548 26.0144 10.7558 25.4778 12.0394 25.468C12.5004 25.4638 12.8913 25.5885 13.1057 26.027C13.2822 26.3899 13.2612 26.7823 12.9656 27.0443C12.7442 27.2419 12.4135 27.4086 12.1248 27.4198C11.3051 27.4534 10.6129 27.7589 9.97394 28.2311C8.51807 29.3058 6.90245 29.6729 5.16353 29.1727C4.47552 28.9751 3.83096 28.5758 3.21302 28.1947C2.55164 27.7869 1.89586 27.4366 1.09296 27.4324C0.552084 27.4296 0.177956 27.148 0.00140123 26.6253V26.2582L0 26.2596Z" fill="#19291D"/>
<path d="M0 32.1348C0.350307 31.4398 0.594121 31.3179 1.3704 31.3586C2.37929 31.4104 3.28588 31.7467 4.09579 32.3296C4.86787 32.8844 5.67778 33.2838 6.65723 33.3272C7.25136 33.3538 7.59326 33.7882 7.56663 34.3249C7.54001 34.8699 7.12384 35.2482 6.51571 35.2511C5.49562 35.2567 4.5582 34.9624 3.70204 34.4117C3.43161 34.238 3.18639 34.0082 2.89634 33.8891C2.35406 33.6677 1.79778 33.4421 1.22607 33.3412C0.657176 33.2417 0.196172 33.096 0.00140123 32.5005V32.1334L0 32.1348Z" fill="#19291D"/>
<path d="M12.6558 31.3109C13.837 31.3908 14.8067 31.926 15.7329 32.5748C16.2513 32.9377 16.802 33.2025 17.4536 33.2642C18.3784 33.3524 19.2065 33.1493 19.9632 32.6084C20.8544 31.9709 21.796 31.4636 22.9268 31.3698C24.2565 31.2591 25.4854 31.5211 26.6008 32.2497C27.4696 32.8172 28.3579 33.2796 29.4299 33.3272C30.017 33.3524 30.3743 33.7966 30.3477 34.3221C30.3211 34.8489 29.9133 35.2931 29.3444 35.2356C28.6088 35.1614 27.8661 35.0198 27.1669 34.7859C26.626 34.6051 26.1412 34.2492 25.6438 33.9507C24.1921 33.082 22.7502 33.0204 21.3546 34.039C19.8567 35.1319 18.2187 35.5691 16.4251 35.0493C15.7371 34.8503 15.0911 34.4524 14.4732 34.0698C13.8118 33.6607 13.1546 33.3286 12.3517 33.3034C11.7184 33.2838 11.3653 32.9643 11.2924 32.4809C11.2251 32.0367 11.4143 31.6136 11.815 31.4622C12.0771 31.3628 12.3741 31.3571 12.6558 31.3095V31.3109Z" fill="#19291D"/>
<path d="M29.0236 29.3745C27.8158 29.4221 26.6878 28.9149 25.6565 28.154C24.8928 27.5922 24.0422 27.2993 23.1174 27.4731C22.5345 27.5824 21.9432 27.8122 21.4374 28.1218C20.5322 28.6767 19.648 29.2484 18.5578 29.3366C18.2426 29.3619 17.9119 29.3717 17.605 29.3086C17.1664 29.2175 16.8792 28.7832 16.903 28.3558C16.9282 27.9172 17.2477 27.4787 17.6863 27.4703C18.8381 27.4464 19.7237 26.8579 20.6597 26.2877C22.599 25.1079 24.5747 25.1667 26.5028 26.3717C27.1992 26.8075 27.8438 27.3217 28.7209 27.389C29.6289 27.4591 30.4473 27.2853 31.1885 26.7501C32.1708 26.0425 33.2147 25.4862 34.4674 25.482C34.7056 25.482 34.9676 25.4932 35.1792 25.5857C35.5828 25.7622 35.7677 26.1139 35.7117 26.5567C35.6556 26.9953 35.4076 27.3498 34.9648 27.361C33.7626 27.3904 32.8293 27.9929 31.8793 28.6248C31.0596 29.1699 30.1208 29.3899 29.0222 29.3745H29.0236Z" fill="#19291D"/>
</g>
<defs>
<clipPath id="clip0_6_295">
<rect width="47" height="47" fill="white"/>
</clipPath>
</defs>
</svg>
