<svg width="12" height="16" viewBox="0 0 12 16" fill="none" xmlns="http://www.w3.org/2000/svg">
<path d="M10.375 6.75V8C10.375 9.16032 9.91406 10.2731 9.09359 11.0936C8.27312 11.9141 7.16032 12.375 6 12.375M6 12.375C4.83968 12.375 3.72688 11.9141 2.90641 11.0936C2.08594 10.2731 1.625 9.16032 1.625 8V6.75M6 12.375V14.875M3.5 14.875H8.5M6 1.125C5.50272 1.125 5.02581 1.32254 4.67417 1.67417C4.32254 2.02581 4.125 2.50272 4.125 3V8C4.125 8.49728 4.32254 8.97419 4.67417 9.32583C5.02581 9.67746 5.50272 9.875 6 9.875C6.49728 9.875 6.97419 9.67746 7.32583 9.32583C7.67746 8.97419 7.875 8.49728 7.875 8V3C7.875 2.50272 7.67746 2.02581 7.32583 1.67417C6.97419 1.32254 6.49728 1.125 6 1.125Z" stroke="#F0F6EA" stroke-width="1.5" stroke-linecap="round" stroke-linejoin="round"/>
</svg>
