<svg width="51" height="50" viewBox="0 0 51 50" fill="none" xmlns="http://www.w3.org/2000/svg">
<g clip-path="url(#clip0_101_677)">
<g clip-path="url(#clip1_101_677)">
<path d="M2.06766 16.4195C1.97834 17.7103 1.84881 18.873 1.82797 20.0387C1.72971 25.5412 2.90286 30.7131 6.16919 35.2345C9.62312 40.0149 14.3827 42.6991 20.2067 43.4792C23.616 43.9363 26.9969 43.7606 30.2648 42.5905C35.2268 40.8144 37.987 37.1803 38.8713 32.0828C39.4266 28.8834 38.8877 25.8032 37.2173 23.0133C35.0824 19.4447 31.8399 17.4081 27.7815 16.6518C26.7677 16.4627 25.7196 17.2681 25.5201 18.2879C25.3012 19.4134 25.9682 20.4824 27.1071 20.7295C28.447 21.0183 29.711 21.4724 30.8484 22.2421C33.9807 24.3576 35.2283 27.3902 34.8129 31.0421C34.3871 34.7819 32.4428 37.5942 28.7403 38.6676C21.9873 40.6253 15.8521 39.4596 10.7888 34.3353C8.44402 31.9637 7.18304 28.9623 6.51012 25.7243C5.54987 21.1032 5.84911 16.561 7.57756 12.1542C9.3477 7.6433 12.6855 4.62707 16.9731 2.57258C20.0936 1.07787 23.3971 0.23225 26.8451 0.11166C29.105 0.0327561 31.3173 0.549356 33.4388 1.31011C41.9218 4.35463 47.3781 10.2382 49.7273 18.9385C50.6846 22.4847 50.7159 26.092 50.0221 29.7023C50.0161 29.7335 49.9834 29.7588 50.0221 29.7067C49.9194 28.2492 49.9238 26.6979 49.6812 25.1883C48.709 19.1395 46.1439 13.9452 41.1208 10.2263C36.7974 7.02546 31.8577 5.92527 26.5473 6.30937C23.7916 6.50886 21.1521 7.1401 18.7879 8.63183C15.2759 10.8486 13.4105 14.1313 12.8106 18.1688C12.4131 20.8441 12.8106 23.4376 13.9763 25.8761C15.7717 29.6308 18.8817 31.7821 22.8001 32.8659C23.6338 33.0966 24.5122 33.1934 25.3772 33.2842C26.464 33.4003 27.4629 32.5964 27.6207 31.5483C27.7905 30.4094 27.0773 29.3971 25.9369 29.1708C24.9395 28.9728 23.8944 28.9058 22.949 28.5648C18.8609 27.088 16.8034 24.0509 16.8332 19.8288C16.863 15.7094 19.3269 12.2704 23.2691 11.1731C29.4251 9.46107 35.1345 10.4005 40.0549 14.6822C42.687 16.9734 44.1951 19.9836 45.0348 23.3319C46.257 28.2075 46.0054 33.0192 44.207 37.7162C42.5813 41.9637 39.5144 44.9114 35.5528 46.9912C32.1466 48.7792 28.4872 49.732 24.6641 49.8809C22.358 49.9702 20.0772 49.4834 17.8902 48.7182C8.81621 45.5456 3.16488 39.2601 1.05233 29.8898C0.0533688 25.4638 0.450868 21.0689 1.90836 16.7739C1.93665 16.689 1.98131 16.6101 2.06766 16.4151V16.4195Z" fill="#19291D"/>
</g>
</g>
<defs>
<clipPath id="clip0_101_677">
<rect width="50" height="50" fill="white" transform="translate(0.5)"/>
</clipPath>
<clipPath id="clip1_101_677">
<rect width="50" height="49.7916" fill="white" transform="translate(0.5 0.104218)"/>
</clipPath>
</defs>
</svg>
