<?xml version="1.0" encoding="UTF-8"?>
<svg id="Capa_2" data-name="Capa 2" xmlns="http://www.w3.org/2000/svg" xmlns:xlink="http://www.w3.org/1999/xlink" viewBox="0 0 500 500">
  <defs>
    <style>
      .cls-1 {
        fill: #465a64;
      }

      .cls-2 {
        fill: #19291d;
      }

      .cls-3 {
        fill: #b16769;
      }

      .cls-4 {
        fill: #263e2c;
      }

      .cls-5 {
        isolation: isolate;
        opacity: .3;
      }

      .cls-6 {
        fill: #f0f6ea;
      }

      .cls-7 {
        fill: #f3a5a6;
      }

      .cls-8 {
        fill: #60beb8;
      }

      .cls-9 {
        fill: #f18e8e;
      }

      .cls-10 {
        clip-path: url(#clippath);
      }

      .cls-11 {
        fill: #32523a;
      }

      .cls-12 {
        fill: none;
      }

      .cls-13 {
        fill: #263238;
      }
    </style>
    <clipPath id="clippath">
      <circle class="cls-12" cx="250" cy="250" r="250"/>
    </clipPath>
  </defs>
  <g id="Capa_1-2" data-name="Capa 1">
    <g>
      <circle class="cls-6" cx="250" cy="250" r="250"/>
      <g class="cls-10">
        <g id="freepik--character-1--inject-2">
          <g id="freepik--characters--inject-2">
            <g id="freepik--top--inject-2">
              <g id="freepik--Hat--inject-2">
                <path class="cls-11" d="m291.05,97.23c-13-32.32-54.11-45.32-91.79-28.7-37.68,16.62-57.83,56.14-44.78,88.46,13.04,32.32,54.11,45.17,91.79,28.7,37.68-16.47,57.78-56.14,44.78-88.46Z"/>
                <path class="cls-8" d="m98,238.45c22.66,49.91,104.21,59.38,182.09,20.92,77.88-38.46,122.62-110.25,99.91-160.2-22.71-49.95-104.26-59.62-182.14-20.97-77.83,38.65-122.52,110.34-99.86,160.25Z"/>
                <path class="cls-4" d="m98,238.45c22.66,49.91,104.21,59.38,182.09,20.92,77.88-38.46,122.62-110.25,99.91-160.2-22.71-49.95-104.26-59.62-182.14-20.97-77.83,38.65-122.52,110.34-99.86,160.25Z"/>
                <path class="cls-5" d="m170.61,176.46c9.61-18.7,28.65-37.01,53.58-49.28,31.93-15.8,64.93-17.59,85.9-6.76,8.2,3.9,14.79,10.53,18.65,18.74,13.04,28.5-12.61,69.71-57.3,91.79-20.74,10.98-44.34,15.35-67.64,12.51-2.39-.36-4.76-.86-7.1-1.5-12.9-2.77-23.85-11.25-29.76-23.04-5.7-12.71-3.96-27.83,3.67-42.47Z"/>
              </g>
              <g id="freepik--arm--inject-2">
                <path class="cls-9" d="m463.96,428.41s-35.7-38.65-65.99-71.6c-42.27-45.94-78.7-40.2-78.7-40.2l10.77,96.14s72.13,68.51,93.34,83.39c31.93,22.42,41.26,17.73,73.29,3.53,26.43-11.69,86.91-47.54,103-57.2,9.16-6.01,19.7-9.6,30.63-10.44,13-1.71,25.54-6,36.86-12.61,8.07-5.39,15.59-11.56,22.46-18.41,2.79-3,5.31-6.23,7.54-9.66,2.22-3.19,2.95-6.47,5.75-10.1,2.8-3.62,6.91-6.76,6.91-11.59,0-1.01,0-2.08,0-3.09.39-2.17,2.32-3.72,3.04-5.8.81-2.77-.14-5.76-2.42-7.54-2.24-1.77-5.02-2.71-7.87-2.66-1.88.12-3.76-.01-5.6-.39-1.69-.67-3.3-1.49-4.83-2.46-4.78-2.46-7.78,1.79-11.69,3.86-8.7,4.49-29.57,22.37-39.62,21.69-2.03-.1-6.28-1.01-3.48-3.48,3.79-3.01,7.31-6.34,10.53-9.95,3.23-3.72,4.73-8.64,4.11-13.53-.2-1.5-.94-2.87-2.08-3.86-1.69-1.26-2.85-.48-4.15.48-1.44.97-2.94,1.84-4.49,2.61l-9.42,5.17c-18.26,10.15-30.39,14.98-41.16,24.64-8.5,7.44-14.16,17.05-29.33,23.29-12.9,5.27-97.4,29.76-97.4,29.76Z"/>
              </g>
              <path class="cls-2" d="m460.29,514.55c13.82.63,45.32-17.54,45.32-17.54-10.49-9.28-17.64-21.76-20.34-35.51-3.04-12.65-3.71-25.75-1.98-38.65l-20.24,4.2s-57.97-67.73-74.74-85.46c-13.24-14.2-22.27-25.75-50.05-31.5l-10.05,108.22s16.09,13.87,63.58,54.59c47.49,40.73,54.69,41.02,68.51,41.64Z"/>
              <path class="cls-13" d="m457.83,420.97c-16.33,6.93-26.76,23.14-26.28,40.87,3.82-17.44,21.06-32.61,31.5-34.78l-5.22-6.09Z"/>
              <path class="cls-1" d="m475.89,470.63c5.31,13.96,16.52,29.9,27.78,28.99,11.18-2.82,21.81-7.49,31.45-13.82,7.39-5.27,4.4-8.31,4.4-8.31l-6.86,3.82s-13.33-2.8-23.77-32.08c-3.88-10.54-5.25-21.84-4.01-33l9.23-2.56c-2.17-6.14-17.34.29-29.57,3.86-7.06,1.47-12.54,7.03-13.91,14.11-1.4,5.99-3.58,15.46,5.27,38.99Z"/>
              <path class="cls-11" d="m278.64,297.29l59.62,12.56c19.71,12.95,34.25,57.2,36.91,134.5,1.84,58.89,1.84,191.12,1.84,191.12,0,0-23.38,35.32-103.29,40.15-119.76,7.05-162.96-36.43-162.96-36.43,2.51-36.09,6.14-51.79,7.34-95.56.43-31.13-2.16-62.23-7.73-92.86-7.44-38.7-10.48-78.11-9.08-117.49,29.83-15.81,61.38-28.16,94.01-36.81l83.34.82Z"/>
              <path class="cls-2" d="m204.29,648.95l25.46,25.22c64.11-73.29,121.26-194.99,98.46-367.17l-36.91-7.63c22.8,172.13-45.9,301.08-87.01,349.58Z"/>
              <g id="freepik--arm--inject-2-2" data-name="freepik--arm--inject-2">
                <g id="freepik--arm--inject-2-3" data-name="freepik--arm--inject-2">
                  <path class="cls-9" d="m62.39,727.75c-7.68-13.53-6.18-31.21-14.88-44.21-2.66-3.96-6.14-7.3-8.99-11.11-2.95-3.37-4.01-8-2.8-12.32.43-2.42,35.99-137.01,35.99-137.01l49.52-85.61c19.71-40.68,15.6-78.12,7.49-98.65-31.84-.63-41.64,7.01-53.82,26.33-7.92,12.42-11.93,19.81-29.62,52.51-21.93,40.53-20.97,37.68-35.17,67.64-6.04,12.71-13.43,20.05-19.08,66.09-4.2,35.32-8.45,100.15-9.03,104.98-1.79,16.43-8.84,39.28-7.54,49.13,1.3,9.86,3.33,22.18,5.17,30.05,1.22,4.74,4.33,8.77,8.6,11.16,2.28,7.62,5.27,15.02,8.94,22.08,2.29,4.2,6.72,6.78,11.5,6.72,2.63,5.4,5.6,10.63,8.89,15.65,6.62,10.44,8.02,8.02,10,6.62,3.37-2.61,4.79-7.02,3.58-11.11-1.79-5.12-8.65-16.18-10.15-20.34-1.22-4.62-1.99-9.34-2.32-14.11,0,0,1.74,4.2,3.33,8.36,3.12,5.6,6.61,10.99,10.44,16.14,5.02,7.73,9.47,12.27,12.42,10.53,3.51-3.43,4.46-8.7,2.37-13.14-1.98-5.6-12.61-20.87-13.04-26.57-1.27-7.47-1.8-15.04-1.59-22.61.1-2.61-.72-14.25,5.17-9.66,1.21,1.19,2.12,2.64,2.66,4.25,1.77,4.66,4.39,8.95,7.73,12.66,3.42,3.73,8.27,5.84,13.33,5.8.76-.02,1.51-.22,2.17-.58,1.34-.99,1.92-2.7,1.45-4.3-.5-1.54-1.23-2.99-2.17-4.3l-.53-1.06Z"/>
                  <path class="cls-2" d="m133.12,433.67l-60.68,90.25-7.78,26.76c-12.44,4.34-25.89,4.92-38.65,1.64-25.46-6.18-31.26-14.98-32.32-19.32,2.36-22.67,8.91-44.7,19.32-64.98,9.66-21.5,37.15-78.8,50.82-101.07,13.67-22.27,15.89-26.14,54.88-42.37,40.92,40.58,14.4,109.09,14.4,109.09Z"/>
                </g>
              </g>
              <g id="freepik--head--inject-2">
                <path class="cls-13" d="m170.66,176.08c9.61-18.74,28.65-36.96,53.58-49.33,31.93-15.75,64.88-17.54,85.9-6.76,8.19,3.94,14.77,10.57,18.65,18.79.63,1.4,1.16,2.85,1.64,4.3.69,9.34-.34,18.72-3.04,27.68l-107.25-9.95c.92,5.92,1,11.94.24,17.88-1.98,15.99-20.39,31.79-20.39,31.79l.53,22.32v32.22c-4.98-1.62-9.16-5.08-11.69-9.66-4.13-7.32-7.87-14.85-11.21-22.56-3.12-7.85-5.64-15.92-7.54-24.16-1.88-7.58-3.29-14.35-4.3-20.24,1.19-4.27,2.82-8.4,4.88-12.32Z"/>
                <path class="cls-9" d="m170.51,241.31c-14.72-7.78-20.34-26.02-12.56-40.74.75-1.56,1.71-3.02,2.86-4.31,6.79-7.64,18.49-8.32,26.12-1.53,4.3,4.83,8.45,17.01,13.96,12.51,2.66-2.26,4.87-4.99,6.52-8.07,12.95-11.79,13.87-41.69,5.56-51.36,6.43,3.33,31.11,2.17,41.4-1.5,24.98-8.89,41.45-21.02,58.8-11.79,6.81,3.67,10.15,12.22,11.64,20,6.8,33.52,5.79,68.15-2.95,101.21-4.83,15.65-14.49,27.05-28.99,28.99-4.8.68-9.64,1.02-14.49,1.01l-.34,15.07c33.96,32.85-51.94,43.14-82.85-.34v-63.24s-7.78,12.85-24.16,4.35c-.18-.09-.36-.18-.53-.27Z"/>
                <path class="cls-3" d="m273.95,244.63c.06.01.13.02.19.03,6.21.86,11.94-3.48,12.8-9.69l-22.71-3.77c-.86,6.35,3.41,12.25,9.71,13.43Z"/>
                <path class="cls-7" d="m277.72,244.63c-1.23.22-2.49.22-3.72,0-5-.91-8.88-4.88-9.66-9.9.92-.1,1.84-.1,2.75,0,5.61-.04,10.27,4.31,10.63,9.9Z"/>
                <path class="cls-13" d="m257.73,169.63c-1.76-4.41-6.76-6.57-11.17-4.81-4.57,1.94-6.81,7.13-5.07,11.79l16.38-6.62c-.04-.12-.09-.24-.13-.36Z"/>
                <path class="cls-13" d="m312.65,158.1c-.17-.05-.33-.1-.5-.15-4.54-1.18-9.19,1.54-10.37,6.09l16.96,5.41c1.33-4.8-1.35-9.8-6.09-11.35Z"/>
                <path class="cls-13" d="m248.59,187.67c-.03-3.98,3.18-7.22,7.15-7.25,3.96-.03,7.19,3.15,7.25,7.1.05,3.98-3.13,7.24-7.1,7.29s-7.24-3.13-7.29-7.1c0-.02,0-.03,0-.05Z"/>
                <path class="cls-13" d="m302.6,183.81c-.03-3.98,3.17-7.22,7.15-7.25,3.98-.03,7.22,3.17,7.25,7.15.03,3.98-3.17,7.22-7.15,7.25-3.98.03-7.22-3.17-7.25-7.15h0Z"/>
                <path class="cls-3" d="m306.66,210.43l-24.45,8.26-4.83-45.94c12.47,10.2,22.47,23.08,29.28,37.68Z"/>
                <path class="cls-13" d="m192.5,203.32c4.06,6.33-.1,22.22,12.22,56.04,3.82,10.34,15.27,22.13,44.98,28.12,29.71,5.99,53.24,1.16,64.3-8.5,7.97-7.1,13-19.81,14.88-34.69,1.72-17.11,1.72-34.34,0-51.45.39,11.43-1.04,22.84-4.25,33.82-2.51,6.09-7.68,5.17-14.49,2.56-9.18-3.38-14.64-8.6-30.68-8.21-26.38.68-32.37,9.08-48.31,9.08-11.16-.1-21.89-3.48-24.16-34.83,0,0-18.55,1.74-14.49,8.07Zm59.71,42.71c.68-10.34,9.08-16.14,24.16-16.14,17.1-.1,24.3,7.25,24.59,15.75.53,12.71-1.4,20.29-9.66,21.26-9.52,1.16-10.34-.05-10.34-3.24-.47-3.26-.11-6.58,1.06-9.66,1.74-2.08,1.64-3.29-4.83-3.24-6.47.05-7.25.48-4.83,3.24,1.29,2.96,1.71,6.23,1.21,9.42-.14,4.2-5.07,3.91-11.74,3.19-5.65-.72-10-5.94-9.61-20.58Z"/>
              </g>
            </g>
          </g>
        </g>
      </g>
    </g>
  </g>
</svg>