<?xml version="1.0" encoding="UTF-8"?>
<svg id="Capa_2" data-name="Capa 2" xmlns="http://www.w3.org/2000/svg" viewBox="0 0 684.02 684.02">
  <defs>
    <style>
      .cls-1 {
        fill: #e1edd5;
      }
    </style>
  </defs>
  <g id="Capa_1-2" data-name="Capa 1">
    <g>
      <path class="cls-1" d="m526.44,342.01c-35.84,45.43-85.32,62.97-131.73,52.7,1.9,8.57,2.84,17.24,2.84,25.92,0,38.3-18.49,76.59-55.54,105.81-45.43-35.84-62.96-85.32-52.7-131.73-8.57,1.9-17.24,2.84-25.91,2.84-38.3,0-76.6-18.5-105.82-55.54,35.84-45.43,85.33-62.96,131.73-52.7-1.89-8.56-2.84-17.23-2.84-25.9,0-38.3,18.49-76.6,55.54-105.83,45.44,35.84,62.97,85.33,52.7,131.73,46.41-10.26,95.89,7.27,131.73,52.7Z"/>
      <path class="cls-1" d="m679.9,330.14l-6.3-8.01c-47.79-60.56-111.72-93.92-180.04-93.92-14.29,0-28.36,1.54-42.15,4.4,2.86-13.79,4.4-27.86,4.4-42.14.01-68.32-33.35-132.26-93.93-180.04l-8-6.31c-3.48-2.75-7.68-4.12-11.87-4.12s-8.4,1.38-11.88,4.12l-7.99,6.31c-60.57,47.78-93.93,111.72-93.92,180.04,0,14.28,1.54,28.35,4.4,42.15-13.8-2.87-27.87-4.41-42.16-4.41-68.31,0-132.25,33.36-180.03,93.93l-6.31,8c-5.49,6.96-5.49,16.79,0,23.75l6.31,7.99c47.78,60.58,111.72,93.93,180.03,93.93,14.29,0,28.36-1.54,42.16-4.4-2.86,13.79-4.4,27.86-4.4,42.15-.01,68.31,33.35,132.25,93.92,180.03l7.99,6.31c3.48,2.75,7.68,4.12,11.88,4.12s8.39-1.37,11.87-4.12l8.01-6.31c60.57-47.78,93.93-111.72,93.92-180.03,0-14.29-1.54-28.36-4.4-42.15,13.79,2.86,27.86,4.4,42.15,4.4,68.32,0,132.25-33.35,180.04-93.92l6.3-8c5.49-6.96,5.5-16.79,0-23.75Zm-21.36,19.87c-63.8,80.88-155.36,105.11-235.81,72.72,32.39,80.45,8.16,172.01-72.72,235.81l-8,6.31-8-6.31c-80.87-63.8-105.11-155.36-72.72-235.81-80.44,32.39-172,8.16-235.8-72.72l-6.31-8,6.31-8c63.8-80.88,155.36-105.11,235.8-72.72-32.39-80.45-8.15-172,72.72-235.81l8-6.3,8,6.3c80.88,63.81,105.11,155.36,72.72,235.81,80.45-32.39,172.01-8.16,235.81,72.72l6.31,8-6.31,8Z"/>
      <g>
        <path class="cls-1" d="m526.44,342.01c-35.84,45.43-85.32,62.97-131.73,52.7,1.9,8.57,2.84,17.24,2.84,25.92,0,38.3-18.49,76.59-55.54,105.81-45.43-35.84-62.96-85.32-52.7-131.73-8.57,1.9-17.24,2.84-25.91,2.84-38.3,0-76.6-18.5-105.82-55.54,35.84-45.43,85.33-62.96,131.73-52.7-1.89-8.56-2.84-17.23-2.84-25.9,0-38.3,18.49-76.6,55.54-105.83,45.44,35.84,62.97,85.33,52.7,131.73,46.41-10.26,95.89,7.27,131.73,52.7Z"/>
        <path class="cls-1" d="m526.44,342.01c-35.84,45.43-85.32,62.97-131.73,52.7,1.9,8.57,2.84,17.24,2.84,25.92,0,38.3-18.49,76.59-55.54,105.81-45.43-35.84-62.96-85.32-52.7-131.73-8.57,1.9-17.24,2.84-25.91,2.84-38.3,0-76.6-18.5-105.82-55.54,35.84-45.43,85.33-62.96,131.73-52.7-1.89-8.56-2.84-17.23-2.84-25.9,0-38.3,18.49-76.6,55.54-105.83,45.44,35.84,62.97,85.33,52.7,131.73,46.41-10.26,95.89,7.27,131.73,52.7Z"/>
      </g>
    </g>
  </g>
</svg>