<?xml version="1.0" encoding="UTF-8"?>
<svg id="Capa_2" data-name="Capa 2" xmlns="http://www.w3.org/2000/svg" viewBox="0 0 953.98 218.51">
  <defs>
    <style>
      .cls-1 {
        fill: #e1edd5;
      }

      .cls-2 {
        fill: #32523a;
      }

      .cls-3 {
        fill: #74b74a;
      }
    </style>
  </defs>
  <g id="Capa_1-2" data-name="Capa 1">
    <g>
      <g>
        <path class="cls-1" d="m74.05,125.13c-4.53-2.81-9.36-5.24-14.5-7.3s-10.01-4.15-14.6-6.27c-4.59-2.12-8.37-4.66-11.31-7.61-2.95-2.95-4.42-6.61-4.42-11,0-5.21,1.85-9.22,5.55-12.03,3.7-2.81,8.36-4.22,13.99-4.22s10.35,1.1,14.6,3.29l6.58,20.16,12.96-.82-2.26-30.03c-2.61-1.23-5.62-2.26-9.05-3.09-3.43-.82-6.96-1.47-10.59-1.95-3.63-.48-7.03-.72-10.18-.72-10.01,0-18.82,1.58-26.43,4.73-7.61,3.16-13.51,7.54-17.69,13.16-4.18,5.62-6.27,12.07-6.27,19.33,0,6.86,1.44,12.52,4.32,16.97,2.88,4.46,6.55,8.09,11,10.9,4.45,2.81,9.22,5.18,14.3,7.1,5.07,1.92,9.87,3.94,14.4,6.07,4.53,2.13,8.23,4.63,11.11,7.51,2.88,2.88,4.32,6.72,4.32,11.52,0,4.39-1.65,7.89-4.94,10.49-3.29,2.61-8.02,3.91-14.19,3.91-3.43,0-7.03-.48-10.8-1.44-3.77-.96-7.03-2.4-9.77-4.32l-6.99-21.19-13.16.82,1.03,30.44c4.94,2.74,10.87,4.94,17.79,6.58,6.92,1.64,13.33,2.47,19.23,2.47,10.28,0,19.3-1.58,27.05-4.73,7.74-3.15,13.75-7.51,18-13.06,4.25-5.55,6.38-11.83,6.38-18.82,0-6.58-1.44-12-4.32-16.25-2.88-4.25-6.58-7.78-11.11-10.59Z"/>
        <path class="cls-1" d="m139.35,166.17c-.21-4.11-.31-8.43-.31-12.96v-26.12c0-5.62.1-10.66.31-15.12.21-4.45.51-8.88.93-13.27l-5.55-3.5-37.85,9.26v9.26l13.78,2.88c.69,3.43,1.16,6.79,1.44,10.08.27,3.29.41,6.93.41,10.9l-.21,15.63c0,3.29-.07,6.45-.21,9.46-.14,3.02-.31,5.49-.51,7.4-.21,1.92-.38,3.22-.51,3.91l-13.58,2.88.62,9.87h55.12l.62-9.87-13.58-2.88c-.41-1.1-.72-3.7-.93-7.82Z"/>
        <path class="cls-1" d="m231.3,166.06c-3.77,1.72-8.06,2.57-12.86,2.57-8.64,0-15.53-2.95-20.67-8.85-4.5-5.16-7.03-11.74-7.59-19.75h57.47v-4.94c0-11.93-3.29-21.63-9.87-29.11-6.58-7.47-15.91-11.21-27.97-11.21-8.09-.13-15.67,1.85-22.73,5.97-7.06,4.11-12.75,9.77-17.07,16.97-4.32,7.2-6.48,15.6-6.48,25.2,0,8.64,1.92,16.39,5.76,23.24,3.84,6.86,9.22,12.27,16.15,16.25,6.92,3.98,14.84,5.97,23.76,5.97s16.25-2.12,23.24-6.38c6.99-4.25,12.41-10.49,16.25-18.72l-6.17-5.97c-3.7,4.11-7.44,7.03-11.21,8.74Zm-38.88-48.34c1.58-3.91,3.77-6.82,6.58-8.74,2.81-1.92,5.86-2.88,9.15-2.88,5.07,0,9.02,1.89,11.83,5.66,2.81,3.77,4.22,8.95,4.22,15.53v2.06h-34.04c.23-4.53.97-8.43,2.26-11.62Z"/>
        <path class="cls-1" d="m416.52,166.06c-.14-4.04-.21-8.4-.21-13.06l-.41-21.19c0-7.82-1.37-14.47-4.11-19.95-2.75-5.48-6.62-9.7-11.62-12.65-5.01-2.95-10.73-4.42-17.18-4.42s-12.44,1.68-18,5.04c-4.31,2.61-8.43,6.24-12.37,10.87-2.86-5.29-6.55-9.27-11.08-11.9-4.6-2.67-9.64-4.01-15.12-4.01-5.07,0-10.01,1.27-14.81,3.81-4.8,2.54-9.33,6.62-13.57,12.24l-.62-.21,1.03-11.93-5.55-3.5-36.2,9.26v9.26l13.16,2.88c.41,2.33.75,4.63,1.03,6.89.27,2.26.44,4.53.51,6.79.07,2.26.17,4.7.31,7.3l-.21,15.63c0,3.29-.07,6.41-.21,9.36-.14,2.95-.31,5.42-.52,7.4-.21,1.99-.38,3.33-.51,4.01l-12.75,3.29.82,9.46h51.63l.62-9.46-11.52-3.29c-.28-1.1-.51-3.7-.72-7.82-.21-4.11-.31-8.43-.31-12.96v-30.44c2.06-2.88,4.63-5.07,7.71-6.58,3.09-1.51,6.14-2.26,9.15-2.26s5.55.62,8.02,1.85c2.47,1.23,4.42,3.33,5.86,6.27,1.44,2.95,2.16,6.89,2.16,11.83l.21,19.33c0,2.47-.04,5.07-.1,7.82-.07,2.74-.17,5.24-.31,7.51-.14,2.26-.34,4.08-.62,5.45l-10.7,3.29.62,9.46h48.95l.62-9.46-11.31-3.29c-.28-1.23-.48-3.87-.62-7.92-.14-4.04-.21-8.4-.21-13.06l-.41-21.39c0-3.63-.29-6.97-.83-10.04,1.98-2.28,4.27-4.1,6.9-5.38,3.08-1.51,6.27-2.26,9.56-2.26s6,.69,8.54,2.06c2.53,1.37,4.59,3.7,6.17,6.99,1.57,3.29,2.36,7.54,2.36,12.75l.41,17.48c0,2.47-.07,5.07-.21,7.82-.14,2.74-.24,5.24-.31,7.51-.07,2.26-.24,4.08-.52,5.45l-10.69,3.29.62,9.46h50.39l.62-9.46-12.75-3.29c-.41-1.23-.69-3.87-.82-7.92Z"/>
        <path class="cls-1" d="m520.6,99.83c-5.76-3.36-12.07-5.04-18.92-5.04-5.62,0-10.94,1.54-15.94,4.63-5.01,3.09-9.02,6.69-12.03,10.8l-.62-.21c.41-10.83.69-19.88.82-27.15.14-7.27.31-13.68.51-19.23.21-5.55.51-11.14.93-16.76l-5.76-3.5-38.67,10.08.41,8.85,15.22,1.85c0,1.37.03,3.53.1,6.48.07,2.95.14,6.45.21,10.49.07,4.05.14,8.67.21,13.88.07,5.21.1,11.04.1,17.48v39.8c0,5.01-.04,9.87-.1,14.6-.07,4.73-.24,9.36-.52,13.88,6.17,2.47,12.37,4.36,18.62,5.66,6.24,1.3,12.58,1.95,19.03,1.95,11.52,0,21.49-2.33,29.93-6.99,8.43-4.66,14.87-10.9,19.33-18.72,4.45-7.82,6.69-16.45,6.69-25.92,0-8.77-1.82-16.28-5.45-22.52-3.63-6.24-8.33-11.04-14.09-14.4Zm-15.33,66.03c-4.18,4.73-9.43,7.1-15.74,7.1-2.88,0-5.73-.48-8.54-1.44-2.81-.96-5.25-2.19-7.3-3.7v-46.49c2.06-2.19,4.45-3.91,7.2-5.14,2.74-1.23,5.62-1.85,8.64-1.85,5.9,0,11.07,2.23,15.53,6.68,4.45,4.46,6.68,11.76,6.68,21.91-.14,10.56-2.3,18.2-6.48,22.94Z"/>
        <path class="cls-1" d="m624.68,98.5c-2.75-2.06-5.97-3.09-9.67-3.09-4.39,0-8.61,1.37-12.65,4.11-4.05,2.75-7.99,8.02-11.83,15.84l-.62-.21.82-16.66-5.55-3.29-35.58,9.26v9.26l13.16,2.88c.69,3.57,1.16,6.96,1.44,10.18.27,3.22.41,6.82.41,10.8l-.21,15.63c0,3.29-.1,6.41-.31,9.36-.21,2.95-.38,5.42-.51,7.4-.14,1.99-.28,3.33-.41,4.01l-12.75,3.29.62,9.46h58.62l.62-9.87-17.89-3.09c-.14-.96-.28-2.74-.41-5.35-.14-2.6-.24-5.93-.31-9.98-.07-4.04-.17-8.6-.31-13.68l-.21-16.25c1.51-2.88,3.19-5.52,5.04-7.92,1.02-1.32,2.1-2.5,3.23-3.55,1.95,1.55,3.8,2.73,5.51,3.45,2.6,1.1,5.55,1.65,8.84,1.65,3.98,0,7.47-1.23,10.49-3.7,3.01-2.47,4.52-5.89,4.52-10.28s-1.37-7.61-4.11-9.67Z"/>
        <path class="cls-1" d="m719.29,168.22c-.69-1.23-1.13-2.91-1.34-5.04-.21-2.12-.31-5.17-.31-9.15l.62-28.59c0-9.46-3.6-16.93-10.8-22.42-7.2-5.48-16.9-8.23-29.11-8.23-3.16.28-6.86,1.27-11.11,2.98-4.25,1.72-8.43,3.77-12.55,6.17-4.11,2.4-7.51,4.97-10.18,7.71-2.67,2.74-4.01,5.42-4.01,8.02,0,4.25,2.19,7.3,6.58,9.15,4.39,1.85,9.94,2.09,16.66.72l1.03-12.55c.27-2.88.85-4.9,1.75-6.07.89-1.16,2.43-1.75,4.63-1.75,3.43,0,6.68.82,9.77,2.47,3.09,1.64,5.52,3.77,7.3,6.38,1.78,2.61,2.67,5.35,2.67,8.23v7.4l-32.29,9.67c-6.45,1.78-11.21,4.36-14.3,7.71-3.08,3.36-4.63,7.51-4.63,12.44,0,3.43,1.2,7.06,3.6,10.9,2.4,3.84,5.86,7.13,10.39,9.87,4.52,2.74,10.01,4.11,16.45,4.11,4.11,0,8.4-1.51,12.85-4.53,3.5-2.37,6.93-5.44,10.31-9.16l2.14,5.46c2.06,5.49,5.76,8.23,11.11,8.23,1.92,0,3.94-.28,6.07-.82,2.12-.55,4.42-1.3,6.89-2.26l13.17-5.76v-8.84l-13.37-2.47Zm-28.18-3.09c-1.51,1.78-3.19,3.02-5.04,3.7-1.85.69-3.74,1.03-5.66,1.03-3.29,0-6.24-1.27-8.84-3.81-2.61-2.54-3.91-5.38-3.91-8.54,0-2.74.75-4.94,2.26-6.58,1.51-1.65,3.91-2.67,7.2-3.09l13.99-2.67v19.95Z"/>
      </g>
      <g>
        <path class="cls-1" d="m167.75,6.69l-.6-2.34c-.38-1.49-1.33-2.76-2.66-3.54-.9-.53-1.92-.81-2.95-.81-.48,0-.96.06-1.44.18l-2.34.6c-17.81,4.57-32.77,15.8-42.13,31.62-9.36,15.82-12,34.34-7.44,52.15l.4,1.56c.07.28.12.56.19.85.38,1.49,1.34,2.76,2.66,3.54.9.53,1.92.81,2.94.81.48,0,.96-.06,1.44-.18.84-.21,1.66-.46,2.48-.71,17.75-4.59,32.66-15.8,41.99-31.58,9.36-15.82,12-34.34,7.44-52.15Z"/>
        <path class="cls-2" d="m105.25,12.89h0c36.12,0,65.45,29.33,65.45,65.45h0c-36.12,0-65.45-29.33-65.45-65.45h0Z" transform="translate(147.88 -99.37) rotate(75.61)"/>
        <path class="cls-3" d="m108.74,40.68h0c22.33,0,40.45,18.13,40.45,40.45h0c-22.33,0-40.45-18.13-40.45-40.45h0Z" transform="translate(155.92 -79.16) rotate(75.61)"/>
      </g>
      <g>
        <path class="cls-1" d="m952.73,111.78l-1.9-2.41c-14.41-18.27-33.69-28.33-54.3-28.33-4.31,0-8.55.47-12.71,1.33.86-4.16,1.33-8.4,1.33-12.71,0-20.6-10.06-39.89-28.33-54.3l-2.41-1.9c-1.05-.83-2.32-1.24-3.58-1.24s-2.53.41-3.58,1.24l-2.41,1.9c-18.27,14.41-28.33,33.7-28.33,54.3,0,4.31.47,8.55,1.33,12.71-4.16-.86-8.41-1.33-12.71-1.33-20.6,0-39.89,10.06-54.3,28.33l-1.9,2.41c-1.66,2.1-1.66,5.06,0,7.16l1.9,2.41c14.41,18.27,33.69,28.33,54.3,28.33,4.31,0,8.55-.47,12.71-1.33-.86,4.16-1.33,8.4-1.33,12.71,0,20.6,10.06,39.89,28.33,54.3l2.41,1.9c1.05.83,2.32,1.24,3.58,1.24s2.53-.41,3.58-1.24l2.41-1.9c18.27-14.41,28.33-33.7,28.33-54.3,0-4.31-.47-8.55-1.33-12.71,4.16.86,8.4,1.33,12.71,1.33,20.6,0,39.89-10.06,54.3-28.33l1.9-2.41c1.66-2.1,1.66-5.06,0-7.16Z"/>
        <g>
          <path class="cls-2" d="m946.29,112.95c-19.24-24.39-46.86-31.7-71.12-21.93,9.77-24.26,2.46-51.88-21.93-71.12l-2.41-1.9-2.41,1.9c-24.39,19.24-31.7,46.86-21.93,71.12-24.26-9.77-51.88-2.46-71.12,21.93l-1.9,2.41,1.9,2.41c19.24,24.39,46.86,31.7,71.12,21.93-9.77,24.26-2.46,51.88,21.93,71.12l2.41,1.9,2.41-1.9c24.39-19.24,31.7-46.86,21.93-71.12,24.26,9.77,51.88,2.46,71.12-21.93l1.9-2.41-1.9-2.41Z"/>
          <path class="cls-3" d="m906.45,115.36c-10.81-13.7-25.73-18.99-39.73-15.89,3.1-14-2.19-28.92-15.89-39.73h0s0,0,0,0c-13.7,10.81-18.99,25.73-15.89,39.73-14-3.1-28.92,2.19-39.73,15.89h0c10.81,13.7,25.73,18.99,39.73,15.89-3.1,14,2.19,28.92,15.89,39.73h0c13.7-10.81,18.99-25.73,15.89-39.73,14,3.1,28.92-2.19,39.73-15.89h0Z"/>
        </g>
      </g>
    </g>
  </g>
</svg>