<?xml version="1.0" encoding="UTF-8"?>
<svg id="Capa_2" data-name="Capa 2" xmlns="http://www.w3.org/2000/svg" xmlns:xlink="http://www.w3.org/1999/xlink" viewBox="0 0 1454.82 397.22">
  <defs>
    <style>
      .cls-1 {
        fill: #e1edd5;
      }

      .cls-2 {
        fill: url(#Degradado_sin_nombre_10);
      }

      .cls-3 {
        fill: #32523a;
      }

      .cls-4 {
        fill: #74b74a;
      }
    </style>
    <linearGradient id="Degradado_sin_nombre_10" data-name="Degradado sin nombre 10" x1="1791.48" y1="-86.35" x2="-571.24" y2="546.39" gradientUnits="userSpaceOnUse">
      <stop offset="0" stop-color="#74b74a"/>
      <stop offset=".51" stop-color="#32523a"/>
      <stop offset="1" stop-color="#19291d"/>
    </linearGradient>
  </defs>
  <g id="Capa_1-2" data-name="Capa 1">
    <g>
      <rect class="cls-2" x="0" y="0" width="1454.82" height="397.22" rx="197.04" ry="197.04"/>
      <g>
        <g>
          <g>
            <path class="cls-1" d="m218.52,196.72c-4.53-2.81-9.36-5.24-14.5-7.3s-10.01-4.15-14.6-6.27c-4.59-2.12-8.37-4.66-11.31-7.61-2.95-2.95-4.42-6.61-4.42-11,0-5.21,1.85-9.22,5.55-12.03,3.7-2.81,8.36-4.22,13.99-4.22s10.35,1.1,14.6,3.29l6.58,20.16,12.96-.82-2.26-30.03c-2.61-1.23-5.62-2.26-9.05-3.09-3.43-.82-6.96-1.47-10.59-1.95-3.63-.48-7.03-.72-10.18-.72-10.01,0-18.82,1.58-26.43,4.73-7.61,3.16-13.51,7.54-17.69,13.16-4.18,5.62-6.27,12.07-6.27,19.33,0,6.86,1.44,12.52,4.32,16.97,2.88,4.46,6.55,8.09,11,10.9,4.45,2.81,9.22,5.18,14.3,7.1,5.07,1.92,9.87,3.94,14.4,6.07,4.53,2.13,8.23,4.63,11.11,7.51,2.88,2.88,4.32,6.72,4.32,11.52,0,4.39-1.65,7.89-4.94,10.49-3.29,2.61-8.02,3.91-14.19,3.91-3.43,0-7.03-.48-10.8-1.44-3.77-.96-7.03-2.4-9.77-4.32l-6.99-21.19-13.16.82,1.03,30.44c4.94,2.74,10.87,4.94,17.79,6.58,6.92,1.64,13.33,2.47,19.23,2.47,10.28,0,19.3-1.58,27.05-4.73,7.74-3.15,13.75-7.51,18-13.06,4.25-5.55,6.38-11.83,6.38-18.82,0-6.58-1.44-12-4.32-16.25-2.88-4.25-6.58-7.78-11.11-10.59Z"/>
            <path class="cls-1" d="m283.83,237.76c-.21-4.11-.31-8.43-.31-12.96v-26.12c0-5.62.1-10.66.31-15.12.21-4.45.51-8.88.93-13.27l-5.55-3.5-37.85,9.26v9.26l13.78,2.88c.69,3.43,1.16,6.79,1.44,10.08.27,3.29.41,6.93.41,10.9l-.21,15.63c0,3.29-.07,6.45-.21,9.46-.14,3.02-.31,5.49-.51,7.4-.21,1.92-.38,3.22-.51,3.91l-13.58,2.88.62,9.87h55.12l.62-9.87-13.58-2.88c-.41-1.1-.72-3.7-.93-7.82Z"/>
            <path class="cls-1" d="m375.77,237.65c-3.77,1.72-8.06,2.57-12.86,2.57-8.64,0-15.53-2.95-20.67-8.85-4.5-5.16-7.03-11.74-7.59-19.75h57.47v-4.94c0-11.93-3.29-21.63-9.87-29.11-6.58-7.47-15.91-11.21-27.97-11.21-8.09-.13-15.67,1.85-22.73,5.97-7.06,4.11-12.75,9.77-17.07,16.97-4.32,7.2-6.48,15.6-6.48,25.2,0,8.64,1.92,16.39,5.76,23.24,3.84,6.86,9.22,12.27,16.15,16.25,6.92,3.98,14.84,5.97,23.76,5.97s16.25-2.12,23.24-6.38c6.99-4.25,12.41-10.49,16.25-18.72l-6.17-5.97c-3.7,4.11-7.44,7.03-11.21,8.74Zm-38.88-48.34c1.58-3.91,3.77-6.82,6.58-8.74,2.81-1.92,5.86-2.88,9.15-2.88,5.07,0,9.02,1.89,11.83,5.66,2.81,3.77,4.22,8.95,4.22,15.53v2.06h-34.04c.23-4.53.97-8.43,2.26-11.62Z"/>
            <path class="cls-1" d="m560.99,237.65c-.14-4.04-.21-8.4-.21-13.06l-.41-21.19c0-7.82-1.37-14.47-4.11-19.95-2.75-5.48-6.62-9.7-11.62-12.65-5.01-2.95-10.73-4.42-17.18-4.42s-12.44,1.68-18,5.04c-4.31,2.61-8.43,6.24-12.37,10.87-2.86-5.29-6.55-9.27-11.08-11.9-4.6-2.67-9.64-4.01-15.12-4.01-5.07,0-10.01,1.27-14.81,3.81-4.8,2.54-9.33,6.62-13.57,12.24l-.62-.21,1.03-11.93-5.55-3.5-36.2,9.26v9.26l13.16,2.88c.41,2.33.75,4.63,1.03,6.89.27,2.26.44,4.53.51,6.79.07,2.26.17,4.7.31,7.3l-.21,15.63c0,3.29-.07,6.41-.21,9.36-.14,2.95-.31,5.42-.52,7.4-.21,1.99-.38,3.33-.51,4.01l-12.75,3.29.82,9.46h51.63l.62-9.46-11.52-3.29c-.28-1.1-.51-3.7-.72-7.82-.21-4.11-.31-8.43-.31-12.96v-30.44c2.06-2.88,4.63-5.07,7.71-6.58,3.09-1.51,6.14-2.26,9.15-2.26s5.55.62,8.02,1.85c2.47,1.23,4.42,3.33,5.86,6.27,1.44,2.95,2.16,6.89,2.16,11.83l.21,19.33c0,2.47-.04,5.07-.1,7.82-.07,2.74-.17,5.24-.31,7.51-.14,2.26-.34,4.08-.62,5.45l-10.7,3.29.62,9.46h48.95l.62-9.46-11.31-3.29c-.28-1.23-.48-3.87-.62-7.92-.14-4.04-.21-8.4-.21-13.06l-.41-21.39c0-3.63-.29-6.97-.83-10.04,1.98-2.28,4.27-4.1,6.9-5.38,3.08-1.51,6.27-2.26,9.56-2.26s6,.69,8.54,2.06c2.53,1.37,4.59,3.7,6.17,6.99,1.57,3.29,2.36,7.54,2.36,12.75l.41,17.48c0,2.47-.07,5.07-.21,7.82-.14,2.74-.24,5.24-.31,7.51-.07,2.26-.24,4.08-.52,5.45l-10.69,3.29.62,9.46h50.39l.62-9.46-12.75-3.29c-.41-1.23-.69-3.87-.82-7.92Z"/>
            <path class="cls-1" d="m665.07,171.42c-5.76-3.36-12.07-5.04-18.92-5.04-5.62,0-10.94,1.54-15.94,4.63-5.01,3.09-9.02,6.69-12.03,10.8l-.62-.21c.41-10.83.69-19.88.82-27.15.14-7.27.31-13.68.51-19.23.21-5.55.51-11.14.93-16.76l-5.76-3.5-38.67,10.08.41,8.85,15.22,1.85c0,1.37.03,3.53.1,6.48.07,2.95.14,6.45.21,10.49.07,4.05.14,8.67.21,13.88.07,5.21.1,11.04.1,17.48v39.8c0,5.01-.04,9.87-.1,14.6-.07,4.73-.24,9.36-.52,13.88,6.17,2.47,12.37,4.36,18.62,5.66,6.24,1.3,12.58,1.95,19.03,1.95,11.52,0,21.49-2.33,29.93-6.99,8.43-4.66,14.87-10.9,19.33-18.72,4.45-7.82,6.69-16.45,6.69-25.92,0-8.77-1.82-16.28-5.45-22.52-3.63-6.24-8.33-11.04-14.09-14.4Zm-15.33,66.03c-4.18,4.73-9.43,7.1-15.74,7.1-2.88,0-5.73-.48-8.54-1.44-2.81-.96-5.25-2.19-7.3-3.7v-46.49c2.06-2.19,4.45-3.91,7.2-5.14,2.74-1.23,5.62-1.85,8.64-1.85,5.9,0,11.07,2.23,15.53,6.68,4.45,4.46,6.68,11.76,6.68,21.91-.14,10.56-2.3,18.2-6.48,22.94Z"/>
            <path class="cls-1" d="m769.15,170.08c-2.75-2.06-5.97-3.09-9.67-3.09-4.39,0-8.61,1.37-12.65,4.11-4.05,2.75-7.99,8.02-11.83,15.84l-.62-.21.82-16.66-5.55-3.29-35.58,9.26v9.26l13.16,2.88c.69,3.57,1.16,6.96,1.44,10.18.27,3.22.41,6.82.41,10.8l-.21,15.63c0,3.29-.1,6.41-.31,9.36-.21,2.95-.38,5.42-.51,7.4-.14,1.99-.28,3.33-.41,4.01l-12.75,3.29.62,9.46h58.62l.62-9.87-17.89-3.09c-.14-.96-.28-2.74-.41-5.35-.14-2.6-.24-5.93-.31-9.98-.07-4.04-.17-8.6-.31-13.68l-.21-16.25c1.51-2.88,3.19-5.52,5.04-7.92,1.02-1.32,2.1-2.5,3.23-3.55,1.95,1.55,3.8,2.73,5.51,3.45,2.6,1.1,5.55,1.65,8.84,1.65,3.98,0,7.47-1.23,10.49-3.7,3.01-2.47,4.52-5.89,4.52-10.28s-1.37-7.61-4.11-9.67Z"/>
            <path class="cls-1" d="m863.77,239.81c-.69-1.23-1.13-2.91-1.34-5.04-.21-2.12-.31-5.17-.31-9.15l.62-28.59c0-9.46-3.6-16.93-10.8-22.42-7.2-5.48-16.9-8.23-29.11-8.23-3.16.28-6.86,1.27-11.11,2.98-4.25,1.72-8.43,3.77-12.55,6.17-4.11,2.4-7.51,4.97-10.18,7.71-2.67,2.74-4.01,5.42-4.01,8.02,0,4.25,2.19,7.3,6.58,9.15,4.39,1.85,9.94,2.09,16.66.72l1.03-12.55c.27-2.88.85-4.9,1.75-6.07.89-1.16,2.43-1.75,4.63-1.75,3.43,0,6.68.82,9.77,2.47,3.09,1.64,5.52,3.77,7.3,6.38,1.78,2.61,2.67,5.35,2.67,8.23v7.4l-32.29,9.67c-6.45,1.78-11.21,4.36-14.3,7.71-3.08,3.36-4.63,7.51-4.63,12.44,0,3.43,1.2,7.06,3.6,10.9,2.4,3.84,5.86,7.13,10.39,9.87,4.52,2.74,10.01,4.11,16.45,4.11,4.11,0,8.4-1.51,12.85-4.53,3.5-2.37,6.93-5.44,10.31-9.16l2.14,5.46c2.06,5.49,5.76,8.23,11.11,8.23,1.92,0,3.94-.28,6.07-.82,2.12-.55,4.42-1.3,6.89-2.26l13.17-5.76v-8.84l-13.37-2.47Zm-28.18-3.09c-1.51,1.78-3.19,3.02-5.04,3.7-1.85.69-3.74,1.03-5.66,1.03-3.29,0-6.24-1.27-8.84-3.81-2.61-2.54-3.91-5.38-3.91-8.54,0-2.74.75-4.94,2.26-6.58,1.51-1.65,3.91-2.67,7.2-3.09l13.99-2.67v19.95Z"/>
          </g>
          <g>
            <path class="cls-1" d="m312.22,78.27l-.6-2.34c-.38-1.49-1.33-2.76-2.66-3.54-.9-.53-1.92-.81-2.95-.81-.48,0-.96.06-1.44.18l-2.34.6c-17.81,4.57-32.77,15.8-42.13,31.62-9.36,15.82-12,34.34-7.44,52.15l.4,1.56c.07.28.12.56.19.85.38,1.49,1.34,2.76,2.66,3.54.9.53,1.92.81,2.94.81.48,0,.96-.06,1.44-.18.84-.21,1.66-.46,2.48-.71,17.75-4.59,32.66-15.8,41.99-31.58,9.36-15.82,12-34.34,7.44-52.15Z"/>
            <path class="cls-3" d="m249.72,84.48h0c36.12,0,65.45,29.33,65.45,65.45h0c-36.12,0-65.45-29.33-65.45-65.45h0Z" transform="translate(325.81 -185.51) rotate(75.61)"/>
            <path class="cls-4" d="m253.22,112.26h0c22.33,0,40.45,18.13,40.45,40.45h0c-22.33,0-40.45-18.13-40.45-40.45h0Z" transform="translate(333.85 -165.29) rotate(75.61)"/>
          </g>
        </g>
        <g>
          <path class="cls-1" d="m1015.87,148.27c-8.73-6.09-22.44-9.14-41.12-9.14h-56.85l-.61,11.57,13.2,2.64c.41.54.71,2.54.91,5.99s.37,7.48.51,12.08c.13,4.6.2,9.07.2,13.4l-.2,27c0,4.47-.07,9-.2,13.6-.14,4.6-.3,8.53-.51,11.78s-.51,5.15-.91,5.69l-12.38,3.86.61,11.57h64.97l.61-11.98-16.45-3.25c-.14-.68-.3-2.64-.51-5.89s-.41-7.17-.61-11.78c-.16-3.65-.24-7.25-.27-10.82,1.04.17,2.11.33,3.22.47,2.16.27,4.13.41,5.89.41,12.05,0,22.03-1.86,29.95-5.58,7.92-3.72,13.84-8.7,17.77-14.92,3.92-6.22,5.89-13.06,5.89-20.51,0-11.37-4.37-20.1-13.1-26.19Zm-27.41,45.89c-2.91,4.06-7.14,6.09-12.69,6.09-3.25,0-5.96-.23-8.12-.71-.55-.12-1.06-.24-1.52-.36l-.11-14.36v-17.36c0-4.4.03-7.78.1-10.15.07-2.37.1-4.16.1-5.38h2.44c7.99,0,14.01,2.03,18.07,6.09,4.06,4.06,6.09,10.49,6.09,19.29,0,7.18-1.46,12.79-4.37,16.85Z"/>
          <path class="cls-1" d="m1084.4,232.03c-.14-6.43-.2-14.85-.2-25.28l.2-27.82c.13-9.88.2-18.14.2-24.77s.07-12.55.2-17.77c.13-5.21.41-10.59.81-16.14l-6.7-4.06-44.87,11.17.41,10.36,15.03,2.03c.27,2.98.47,6.19.61,9.64.13,3.45.23,7.11.3,10.96.07,3.86.13,7.85.2,11.98.07,4.13.1,8.43.1,12.89v25.99c0,2.57-.07,6.09-.2,10.56-.14,4.47-.3,8.8-.51,12.99-.2,4.2-.38,7.31-.51,9.34l-13.2,3.25.61,10.96h60.71l.61-10.96-13.2-3.25c-.27-1.62-.48-5.65-.61-12.08Z"/>
          <path class="cls-1" d="m1207.95,224.01c-.07-2.71-.1-4.33-.1-4.87v-32.79c0-4.26.07-7.72.2-10.35.13-2.64.34-4.5.61-5.58l-7.11-3.86-41.01,10.35v10.56l13.81,2.84c.27,2.84.47,5.25.61,7.21.13,1.96.2,4.16.2,6.6v25.18c-1.62,2.57-3.59,4.5-5.89,5.79-2.3,1.29-4.6,1.93-6.9,1.93-5.01,0-8.83-1.55-11.47-4.67-2.64-3.11-3.96-7.78-3.96-14.01l.2-13.81c0-6.22.13-12.52.41-18.88.27-6.36.54-11.5.81-15.43l-7.11-3.65-41.83,10.35v10.56l13.81,2.84c.27,1.62.44,3.59.51,5.89.07,2.3.1,5.15.1,8.53v17.26c0,12.73,3.08,22.33,9.24,28.83,6.16,6.5,14.38,9.75,24.67,9.75,4.87,0,9.78-1.32,14.72-3.96,4.94-2.64,9.3-7.48,13.1-14.52l.61.2-.2,15.63,7.11,3.25,39.39-10.96v-10.15l-13.81-2.64c-.41-6.22-.64-10.69-.71-13.4Z"/>
          <path class="cls-1" d="m1301.95,213.25c-3.86-4.33-10.25-8.19-19.19-11.57-7.85-2.98-13.23-5.45-16.14-7.41-2.91-1.96-4.37-4.3-4.37-7s1.12-4.77,3.35-6.19c2.23-1.42,5.11-2.13,8.63-2.13,1.49,0,3.25.2,5.28.61,2.03.41,3.72,1.08,5.08,2.03l4.26,14.62h15.23l-2.64-25.18c-2.98-1.35-6.87-2.5-11.68-3.45-4.81-.95-9.58-1.42-14.31-1.42-8.66,0-16.34,1.29-23.04,3.86-6.7,2.57-11.91,6.16-15.63,10.76-3.72,4.6-5.58,9.95-5.58,16.04,0,6.77,2,12.46,5.99,17.06,3.99,4.6,11,8.66,21.01,12.18,7.17,2.57,11.91,4.74,14.21,6.5,2.3,1.76,3.45,3.99,3.45,6.7,0,2.17-.88,3.89-2.64,5.18-1.76,1.29-4.54,1.93-8.33,1.93-5.14,0-10.49-1.42-16.04-4.26l-4.26-14.62h-15.23l1.01,25.18c4.06,2.17,9.04,3.93,14.92,5.28,5.89,1.35,11.88,2.03,17.97,2.03,13.4,0,24.16-2.77,32.28-8.32,8.12-5.55,12.18-12.99,12.18-22.33,0-6.36-1.93-11.71-5.79-16.04Z"/>
        </g>
      </g>
    </g>
  </g>
</svg>